<svg viewBox="0 0 100 100" width="400" height="400" xmlns="http://www.w3.org/2000/svg"><path d="M 50.50 50.00 L 50.50 50.01 L 50.51 50.02 L 50.51 50.03 L 50.51 50.04 L 50.51 50.05 L 50.52 50.07 L 50.52 50.08 L 50.52 50.09 L 50.52 50.10 L 50.52 50.11 L 50.52 50.12 L 50.52 50.13 L 50.52 50.15 L 50.52 50.16 L 50.52 50.17 L 50.52 50.18 L 50.52 50.19 L 50.52 50.21 L 50.52 50.22 L 50.52 50.23 L 50.52 50.24 L 50.52 50.26 L 50.51 50.27 L 50.51 50.28 L 50.51 50.29 L 50.51 50.31 L 50.50 50.32 L 50.50 50.33 L 50.49 50.34 L 50.49 50.36 L 50.49 50.37 L 50.48 50.38 L 50.48 50.39 L 50.47 50.41 L 50.47 50.42 L 50.46 50.43 L 50.45 50.44 L 50.45 50.46 L 50.44 50.47 L 50.43 50.48 L 50.43 50.49 L 50.42 50.50 L 50.41 50.52 L 50.40 50.53 L 50.39 50.54 L 50.38 50.55 L 50.37 50.56 L 50.36 50.57 L 50.35 50.59 L 50.34 50.60 L 50.33 50.61 L 50.32 50.62 L 50.31 50.63 L 50.30 50.64 L 50.29 50.65 L 50.28 50.66 L 50.27 50.67 L 50.25 50.68 L 50.24 50.69 L 50.23 50.70 L 50.21 50.71 L 50.20 50.72 L 50.19 50.73 L 50.17 50.73 L 50.16 50.74 L 50.14 50.75 L 50.13 50.76 L 50.11 50.77 L 50.10 50.77 L 50.08 50.78 L 50.07 50.79 L 50.05 50.79 L 50.03 50.80 L 50.02 50.80 L 50.00 50.81 L 49.98 50.81 L 49.97 50.82 L 49.95 50.82 L 49.93 50.83 L 49.91 50.83 L 49.89 50.83 L 49.88 50.84 L 49.86 50.84 L 49.84 50.84 L 49.82 50.84 L 49.80 50.85 L 49.78 50.85 L 49.76 50.85 L 49.74 50.85 L 49.72 50.85 L 49.71 50.85 L 49.69 50.85 L 49.67 50.84 L 49.65 50.84 L 49.63 50.84 L 49.61 50.84 L 49.59 50.83 L 49.57 50.83 L 49.55 50.83 L 49.53 50.82 L 49.50 50.82 L 49.48 50.81 L 49.46 50.81 L 49.44 50.80 L 49.42 50.79 L 49.40 50.79 L 49.38 50.78 L 49.36 50.77 L 49.34 50.76 L 49.32 50.75 L 49.30 50.74 L 49.28 50.73 L 49.26 50.72 L 49.24 50.71 L 49.22 50.70 L 49.20 50.69 L 49.18 50.68 L 49.16 50.66 L 49.15 50.65 L 49.13 50.63 L 49.11 50.62 L 49.09 50.61 L 49.07 50.59 L 49.05 50.57 L 49.03 50.56 L 49.02 50.54 L 49.00 50.52 L 48.98 50.51 L 48.96 50.49 L 48.95 50.47 L 48.93 50.45 L 48.92 50.43 L 48.90 50.41 L 48.88 50.39 L 48.87 50.37 L 48.85 50.35 L 48.84 50.32 L 48.83 50.30 L 48.81 50.28 L 48.80 50.26 L 48.79 50.23 L 48.77 50.21 L 48.76 50.18 L 48.75 50.16 L 48.74 50.13 L 48.73 50.11 L 48.72 50.08 L 48.71 50.05 L 48.70 50.03 L 48.69 50.00 L 48.68 49.97 L 48.68 49.94 L 48.67 49.92 L 48.66 49.89 L 48.66 49.86 L 48.65 49.83 L 48.65 49.80 L 48.64 49.77 L 48.64 49.74 L 48.63 49.71 L 48.63 49.68 L 48.63 49.65 L 48.63 49.62 L 48.63 49.59 L 48.63 49.55 L 48.63 49.52 L 48.63 49.49 L 48.63 49.46 L 48.64 49.43 L 48.64 49.39 L 48.64 49.36 L 48.65 49.33 L 48.66 49.30 L 48.66 49.26 L 48.67 49.23 L 48.68 49.20 L 48.69 49.17 L 48.70 49.13 L 48.71 49.10 L 48.72 49.07 L 48.73 49.03 L 48.74 49.00 L 48.75 48.97 L 48.77 48.94 L 48.78 48.90 L 48.80 48.87 L 48.81 48.84 L 48.83 48.81 L 48.85 48.77 L 48.87 48.74 L 48.89 48.71 L 48.91 48.68 L 48.93 48.65 L 48.95 48.62 L 48.97 48.59 L 49.00 48.56 L 49.02 48.53 L 49.05 48.50 L 49.07 48.47 L 49.10 48.44 L 49.13 48.41 L 49.15 48.38 L 49.18 48.35 L 49.21 48.33 L 49.24 48.30 L 49.27 48.27 L 49.31 48.25 L 49.34 48.22 L 49.37 48.19 L 49.41 48.17 L 49.44 48.15 L 49.48 48.12 L 49.51 48.10 L 49.55 48.08 L 49.59 48.06 L 49.63 48.04 L 49.66 48.02 L 49.70 48.00 L 49.74 47.98 L 49.79 47.96 L 49.83 47.94 L 49.87 47.93 L 49.91 47.91 L 49.96 47.90 L 50.00 47.88 L 50.04 47.87 L 50.09 47.86 L 50.14 47.85 L 50.18 47.83 L 50.23 47.82 L 50.28 47.82 L 50.32 47.81 L 50.37 47.80 L 50.42 47.80 L 50.47 47.79 L 50.52 47.79 L 50.57 47.78 L 50.62 47.78 L 50.67 47.78 L 50.72 47.78 L 50.77 47.78 L 50.82 47.79 L 50.88 47.79 L 50.93 47.79 L 50.98 47.80 L 51.03 47.81 L 51.08 47.82 L 51.14 47.82 L 51.19 47.83 L 51.24 47.85 L 51.30 47.86 L 51.35 47.87 L 51.40 47.89 L 51.46 47.91 L 51.51 47.92 L 51.56 47.94 L 51.62 47.96 L 51.67 47.98 L 51.72 48.01 L 51.77 48.03 L 51.83 48.05 L 51.88 48.08 L 51.93 48.11 L 51.98 48.14 L 52.03 48.17 L 52.09 48.20 L 52.14 48.23 L 52.19 48.27 L 52.24 48.30 L 52.29 48.34 L 52.34 48.38 L 52.39 48.42 L 52.43 48.46 L 52.48 48.50 L 52.53 48.54 L 52.57 48.58 L 52.62 48.63 L 52.67 48.68 L 52.71 48.72 L 52.75 48.77 L 52.80 48.82 L 52.84 48.88 L 52.88 48.93 L 52.92 48.98 L 52.96 49.04 L 53.00 49.09 L 53.04 49.15 L 53.07 49.21 L 53.11 49.27 L 53.14 49.33 L 53.18 49.39 L 53.21 49.46 L 53.24 49.52 L 53.27 49.59 L 53.30 49.65 L 53.33 49.72 L 53.36 49.79 L 53.38 49.86 L 53.40 49.93 L 53.43 50.00 L 53.45 50.07 L 53.47 50.15 L 53.49 50.22 L 53.50 50.29 L 53.52 50.37 L 53.53 50.45 L 53.55 50.52 L 53.56 50.60 L 53.57 50.68 L 53.57 50.76 L 53.58 50.84 L 53.59 50.92 L 53.59 51.00 L 53.59 51.08 L 53.59 51.17 L 53.59 51.25 L 53.58 51.33 L 53.58 51.42 L 53.57 51.50 L 53.56 51.58 L 53.55 51.67 L 53.54 51.75 L 53.52 51.84 L 53.50 51.93 L 53.48 52.01 L 53.46 52.10 L 53.44 52.18 L 53.42 52.27 L 53.39 52.36 L 53.36 52.44 L 53.33 52.53 L 53.30 52.61 L 53.26 52.70 L 53.23 52.79 L 53.19 52.87 L 53.15 52.96 L 53.10 53.04 L 53.06 53.12 L 53.01 53.21 L 52.96 53.29 L 52.91 53.37 L 52.86 53.46 L 52.81 53.54 L 52.75 53.62 L 52.69 53.70 L 52.63 53.78 L 52.56 53.86 L 52.50 53.94 L 52.43 54.01 L 52.36 54.09 L 52.29 54.17 L 52.22 54.24 L 52.14 54.31 L 52.06 54.38 L 51.98 54.46 L 51.90 54.53 L 51.82 54.59 L 51.73 54.66 L 51.65 54.73 L 51.56 54.79 L 51.47 54.85 L 51.37 54.91 L 51.28 54.97 L 51.18 55.03 L 51.08 55.09 L 50.98 55.14 L 50.88 55.19 L 50.77 55.24 L 50.67 55.29 L 50.56 55.34 L 50.45 55.39 L 50.34 55.43 L 50.23 55.47 L 50.12 55.51 L 50.00 55.55 L 49.88 55.58 L 49.76 55.61 L 49.65 55.64 L 49.52 55.67 L 49.40 55.69 L 49.28 55.72 L 49.15 55.74 L 49.03 55.76 L 48.90 55.77 L 48.77 55.78 L 48.64 55.79 L 48.51 55.80 L 48.38 55.81 L 48.25 55.81 L 48.11 55.81 L 47.98 55.80 L 47.84 55.80 L 47.71 55.79 L 47.57 55.77 L 47.44 55.76 L 47.30 55.74 L 47.16 55.72 L 47.02 55.70 L 46.88 55.67 L 46.75 55.64 L 46.61 55.60 L 46.47 55.57 L 46.33 55.53 L 46.19 55.48 L 46.05 55.44 L 45.91 55.39 L 45.77 55.34 L 45.63 55.28 L 45.49 55.22 L 45.36 55.16 L 45.22 55.09 L 45.08 55.02 L 44.94 54.95 L 44.81 54.88 L 44.67 54.80 L 44.54 54.71 L 44.41 54.63 L 44.27 54.54 L 44.14 54.45 L 44.01 54.35 L 43.88 54.25 L 43.76 54.15 L 43.63 54.04 L 43.50 53.93 L 43.38 53.82 L 43.26 53.71 L 43.14 53.59 L 43.02 53.46 L 42.91 53.34 L 42.79 53.21 L 42.68 53.08 L 42.57 52.94 L 42.46 52.80 L 42.35 52.66 L 42.25 52.52 L 42.15 52.37 L 42.05 52.22 L 41.95 52.07 L 41.86 51.91 L 41.77 51.75 L 41.68 51.59 L 41.60 51.42 L 41.51 51.25 L 41.43 51.08 L 41.36 50.91 L 41.29 50.73 L 41.22 50.55 L 41.15 50.37 L 41.09 50.19 L 41.03 50.00 L 40.97 49.81 L 40.92 49.62 L 40.87 49.43 L 40.83 49.23 L 40.79 49.03 L 40.75 48.83 L 40.72 48.63 L 40.69 48.42 L 40.66 48.22 L 40.64 48.01 L 40.63 47.80 L 40.61 47.59 L 40.61 47.38 L 40.60 47.16 L 40.60 46.95 L 40.61 46.73 L 40.62 46.51 L 40.64 46.29 L 40.66 46.07 L 40.68 45.85 L 40.71 45.63 L 40.75 45.41 L 40.78 45.18 L 40.83 44.96 L 40.88 44.73 L 40.93 44.51 L 40.99 44.28 L 41.06 44.06 L 41.13 43.83 L 41.20 43.61 L 41.28 43.38 L 41.37 43.16 L 41.46 42.93 L 41.55 42.71 L 41.65 42.48 L 41.76 42.26 L 41.87 42.04 L 41.99 41.82 L 42.11 41.60 L 42.24 41.38 L 42.37 41.16 L 42.51 40.95 L 42.66 40.73 L 42.81 40.52 L 42.96 40.31 L 43.12 40.10 L 43.29 39.90 L 43.46 39.69 L 43.64 39.49 L 43.82 39.29 L 44.00 39.09 L 44.20 38.90 L 44.39 38.71 L 44.60 38.52 L 44.81 38.34 L 45.02 38.15 L 45.24 37.97 L 45.46 37.80 L 45.69 37.63 L 45.93 37.46 L 46.16 37.30 L 46.41 37.14 L 46.66 36.98 L 46.91 36.83 L 47.17 36.68 L 47.43 36.54 L 47.70 36.40 L 47.97 36.27 L 48.25 36.14 L 48.53 36.02 L 48.82 35.90 L 49.11 35.79 L 49.40 35.68 L 49.70 35.58 L 50.00 35.48 L 50.31 35.39 L 50.62 35.31 L 50.93 35.23 L 51.25 35.16 L 51.57 35.09 L 51.89 35.03 L 52.22 34.98 L 52.55 34.93 L 52.88 34.89 L 53.22 34.86 L 53.56 34.83 L 53.90 34.81 L 54.24 34.80 L 54.59 34.80 L 54.94 34.80 L 55.29 34.81 L 55.64 34.83 L 56.00 34.85 L 56.36 34.88 L 56.71 34.92 L 57.07 34.97 L 57.43 35.03 L 57.80 35.09 L 58.16 35.16 L 58.52 35.24 L 58.89 35.33 L 59.25 35.42 L 59.61 35.53 L 59.98 35.64 L 60.34 35.76 L 60.71 35.89 L 61.07 36.03 L 61.44 36.18 L 61.80 36.33 L 62.16 36.50 L 62.52 36.67 L 62.88 36.85 L 63.24 37.04 L 63.59 37.24 L 63.94 37.44 L 64.30 37.66 L 64.65 37.88 L 64.99 38.12 L 65.34 38.36 L 65.68 38.61 L 66.01 38.87 L 66.35 39.14 L 66.68 39.42 L 67.00 39.70 L 67.33 40.00 L 67.65 40.30 L 67.96 40.61 L 68.27 40.93 L 68.57 41.26 L 68.87 41.60 L 69.17 41.94 L 69.46 42.30 L 69.74 42.66 L 70.02 43.03 L 70.29 43.41 L 70.55 43.79 L 70.81 44.19 L 71.07 44.59 L 71.31 45.00 L 71.55 45.42 L 71.78 45.85 L 72.00 46.28 L 72.22 46.72 L 72.42 47.17 L 72.62 47.62 L 72.81 48.08 L 73.00 48.55 L 73.17 49.03 L 73.33 49.51 L 73.49 50.00 L 73.64 50.50 L 73.77 51.00 L 73.90 51.50 L 74.02 52.02 L 74.12 52.54 L 74.22 53.06 L 74.30 53.59 L 74.38 54.12 L 74.44 54.66 L 74.50 55.21 L 74.54 55.76 L 74.57 56.31 L 74.59 56.87 L 74.60 57.43 L 74.60 57.99 L 74.58 58.56 L 74.55 59.13 L 74.51 59.71 L 74.46 60.28 L 74.40 60.86 L 74.32 61.44 L 74.23 62.03 L 74.13 62.61 L 74.01 63.20 L 73.88 63.79 L 73.74 64.38 L 73.58 64.97 L 73.42 65.56 L 73.23 66.15 L 73.04 66.74 L 72.83 67.33 L 72.60 67.92 L 72.37 68.50 L 72.12 69.09 L 71.85 69.67 L 71.57 70.26 L 71.28 70.84 L 70.97 71.42 L 70.65 71.99 L 70.32 72.56 L 69.97 73.13 L 69.60 73.70 L 69.23 74.26 L 68.83 74.81 L 68.43 75.36 L 68.01 75.91 L 67.57 76.45 L 67.13 76.99 L 66.66 77.51 L 66.19 78.04 L 65.70 78.55 L 65.19 79.06 L 64.67 79.56 L 64.14 80.05 L 63.60 80.54 L 63.04 81.02 L 62.47 81.48 L 61.88 81.94 L 61.28 82.39 L 60.67 82.83 L 60.04 83.26 L 59.40 83.68 L 58.75 84.08 L 58.09 84.48 L 57.41 84.87 L 56.72 85.24 L 56.02 85.60 L 55.31 85.95 L 54.58 86.28 L 53.85 86.61 L 53.10 86.91 L 52.34 87.21 L 51.57 87.49 L 50.79 87.76 L 50.00 88.01 L 49.20 88.24 L 48.39 88.46 L 47.57 88.67 L 46.74 88.86 L 45.90 89.03 L 45.05 89.19 L 44.19 89.33 L 43.33 89.45 L 42.45 89.55 L 41.57 89.64 L 40.69 89.71 L 39.79 89.76 L 38.89 89.79 L 37.98 89.80 L 37.07 89.80 L 36.15 89.77 L 35.23 89.73 L 34.30 89.66 L 33.36 89.58 L 32.42 89.47 L 31.48 89.35 L 30.54 89.20 L 29.59 89.04 L 28.64 88.85 L 27.69 88.64 L 26.74 88.41 L 25.89 87.99 L 25.10 87.48 L 24.32 86.95 L 23.55 86.41 L 22.79 85.84 L 22.05 85.27 L 21.32 84.67 L 20.60 84.06 L 19.89 83.44 L 19.20 82.80 L 18.52 82.15 L 17.85 81.48 L 17.20 80.80 L 16.56 80.11 L 15.94 79.40 L 15.33 78.68 L 14.73 77.95 L 14.16 77.21 L 13.59 76.45 L 13.05 75.68 L 12.52 74.90 L 12.01 74.11 L 11.51 73.31 L 11.03 72.50 L 10.57 71.68 L 10.12 70.85 L 9.69 70.01 L 9.28 69.16 L 8.89 68.30 L 8.52 67.44 L 8.16 66.57 L 7.82 65.69 L 7.50 64.80 L 7.20 63.91 L 6.92 63.01 L 6.66 62.10 L 6.41 61.19 L 6.19 60.28 L 5.98 59.36 L 5.80 58.43 L 5.63 57.50 L 5.48 56.57 L 5.35 55.64 L 5.25 54.70 L 5.16 53.77 L 5.09 52.83 L 5.04 51.88 L 5.01 50.94 L 5.00 50.00 L 5.01 49.06 L 5.04 48.12 L 5.09 47.17 L 5.16 46.23 L 5.25 45.30 L 5.35 44.36 L 5.48 43.43 L 5.63 42.50 L 5.80 41.57 L 5.98 40.64 L 6.19 39.72 L 6.41 38.81 L 6.66 37.90 L 6.92 36.99 L 7.20 36.09 L 7.50 35.20 L 7.82 34.31 L 8.16 33.43 L 8.52 32.56 L 8.89 31.70 L 9.28 30.84 L 9.69 29.99 L 10.12 29.15 L 10.57 28.32 L 11.03 27.50 L 11.51 26.69 L 12.01 25.89 L 12.52 25.10 L 13.05 24.32 L 13.59 23.55 L 14.16 22.79 L 14.73 22.05 L 15.33 21.32 L 15.94 20.60 L 16.56 19.89 L 17.20 19.20 L 17.85 18.52 L 18.52 17.85 L 19.20 17.20 L 19.89 16.56 L 20.60 15.94 L 21.32 15.33 L 22.05 14.73 L 22.79 14.16 L 23.55 13.59 L 24.32 13.05 L 25.10 12.52 L 25.89 12.01 L 26.69 11.51 L 27.50 11.03 L 28.32 10.57 L 29.15 10.12 L 29.99 9.69 L 30.84 9.28 L 31.70 8.89 L 32.56 8.52 L 33.43 8.16 L 34.31 7.82 L 35.20 7.50 L 36.09 7.20 L 36.99 6.92 L 37.90 6.66 L 38.81 6.41 L 39.72 6.19 L 40.64 5.98 L 41.57 5.80 L 42.50 5.63 L 43.43 5.48 L 44.36 5.35 L 45.30 5.25 L 46.23 5.16 L 47.17 5.09 L 48.12 5.04 L 49.06 5.01 L 50.00 5.00 L 50.94 5.01 L 51.88 5.04 L 52.83 5.09 L 53.77 5.16 L 54.70 5.25 L 55.64 5.35 L 56.57 5.48 L 57.50 5.63 L 58.43 5.80 L 59.36 5.98 L 60.28 6.19 L 61.19 6.41 L 62.10 6.66 L 63.01 6.92 L 63.91 7.20 L 64.80 7.50 L 65.69 7.82 L 66.57 8.16 L 67.44 8.52 L 68.30 8.89 L 69.16 9.28 L 70.01 9.69 L 70.85 10.12 L 71.68 10.57 L 72.50 11.03 L 73.31 11.51 L 74.11 12.01 L 74.90 12.52 L 75.68 13.05 L 76.45 13.59 L 77.21 14.16 L 77.95 14.73 L 78.68 15.33 L 79.40 15.94 L 80.11 16.56 L 80.80 17.20 L 81.48 17.85 L 82.15 18.52 L 82.80 19.20 L 83.44 19.89 L 84.06 20.60 L 84.67 21.32 L 85.27 22.05 L 85.84 22.79 L 86.41 23.55 L 86.95 24.32 L 87.48 25.10 L 87.99 25.89 L 88.49 26.69 L 88.97 27.50 L 89.43 28.32 L 89.88 29.15 L 90.31 29.99 L 90.72 30.84 L 91.11 31.70 L 91.48 32.56 L 91.84 33.43 L 92.18 34.31 L 92.50 35.20 L 92.80 36.09 L 93.08 36.99 L 93.34 37.90 L 93.59 38.81 L 93.81 39.72 L 94.02 40.64 L 94.20 41.57 L 94.37 42.50 L 94.52 43.43 L 94.65 44.36 L 94.75 45.30 L 94.84 46.23 L 94.91 47.17 L 94.96 48.12 L 94.99 49.06 L 95.00 50.00 L 94.99 50.94 L 94.96 51.88 L 94.91 52.83 L 94.84 53.77 L 94.75 54.70 L 94.65 55.64 L 94.52 56.57 L 94.37 57.50 L 94.20 58.43 L 94.02 59.36 L 93.81 60.28 L 93.59 61.19 L 93.34 62.10 L 93.08 63.01 L 92.80 63.91 L 92.50 64.80 L 92.18 65.69 L 91.84 66.57 L 91.48 67.44 L 91.11 68.30 L 90.72 69.16 L 90.31 70.01 L 89.88 70.85 L 89.43 71.68 L 88.97 72.50 L 88.49 73.31 L 87.99 74.11 L 87.48 74.90 L 86.95 75.68 L 86.41 76.45 L 85.84 77.21 L 85.27 77.95 L 84.67 78.68 L 84.06 79.40 L 83.44 80.11 L 82.80 80.80 L 82.15 81.48 L 81.48 82.15 L 80.80 82.80 L 80.11 83.44 L 79.40 84.06 L 78.68 84.67 L 77.95 85.27 L 77.21 85.84 L 76.45 86.41 L 75.68 86.95 L 74.90 87.48 L 74.11 87.99 L 73.31 88.49 L 72.50 88.97 L 71.68 89.43 L 70.85 89.88 L 70.01 90.31 L 69.16 90.72 L 68.30 91.11 L 67.44 91.48 L 66.57 91.84 L 65.69 92.18 L 64.80 92.50 L 63.91 92.80 L 63.01 93.08 L 62.10 93.34 L 61.19 93.59 L 60.28 93.81 L 59.36 94.02 L 58.43 94.20 L 57.50 94.37 L 56.57 94.52 L 55.64 94.65 L 54.70 94.75 L 53.77 94.84 L 52.83 94.91 L 51.88 94.96 L 50.94 94.99 L 50.00 95.00 L 49.06 94.99 L 48.12 94.96 L 47.17 94.91 L 46.23 94.84 L 45.30 94.75 L 44.36 94.65 L 43.43 94.52 L 42.50 94.37 L 41.57 94.20 L 40.64 94.02 L 39.72 93.81 L 38.81 93.59 L 37.90 93.34 L 36.99 93.08 L 36.09 92.80 L 35.20 92.50 L 34.31 92.18 L 33.43 91.84 L 32.56 91.48 L 31.70 91.11 L 30.84 90.72 L 29.99 90.31 L 29.15 89.88 L 28.32 89.43 L 27.50 88.97 L 26.69 88.49 L 25.89 87.99 L 25.10 87.48 L 24.32 86.95 L 23.55 86.41 L 22.79 85.84 L 22.05 85.27 L 21.32 84.67 L 20.60 84.06 L 19.89 83.44 L 19.20 82.80 L 18.52 82.15 L 17.85 81.48 L 17.20 80.80 L 16.56 80.11 L 15.94 79.40 L 15.33 78.68 L 14.73 77.95 L 14.16 77.21 L 13.59 76.45 L 13.05 75.68 L 12.52 74.90 L 12.01 74.11 L 11.51 73.31 L 11.03 72.50 L 10.57 71.68 L 10.12 70.85 L 9.69 70.01 L 9.28 69.16 L 8.89 68.30 L 8.52 67.44 L 8.16 66.57 L 7.82 65.69 L 7.50 64.80 L 7.20 63.91 L 6.92 63.01 L 6.66 62.10 L 6.41 61.19 L 6.19 60.28 L 5.98 59.36 L 5.80 58.43 L 5.63 57.50 L 5.48 56.57 L 5.35 55.64 L 5.25 54.70 L 5.16 53.77 L 5.09 52.83 L 5.04 51.88 L 5.01 50.94 L 5.00 50.00 L 5.01 49.06 L 5.04 48.12 L 5.09 47.17 L 5.16 46.23 L 5.25 45.30 L 5.35 44.36 L 5.48 43.43 L 5.63 42.50 L 5.80 41.57 L 5.98 40.64 L 6.19 39.72 L 6.41 38.81 L 6.66 37.90 L 6.92 36.99 L 7.20 36.09 L 7.50 35.20 L 7.82 34.31 L 8.16 33.43 L 8.52 32.56 L 8.89 31.70 L 9.28 30.84 L 9.69 29.99 L 10.12 29.15 L 10.57 28.32 L 11.03 27.50 L 11.51 26.69 L 12.01 25.89 L 12.52 25.10 L 13.05 24.32 L 13.59 23.55 L 14.16 22.79 L 14.73 22.05 L 15.33 21.32 L 15.94 20.60 L 16.56 19.89 L 17.20 19.20 L 17.85 18.52 L 18.52 17.85 L 19.20 17.20 L 19.89 16.56 L 20.60 15.94 L 21.32 15.33 L 22.05 14.73 L 22.79 14.16 L 23.55 13.59 L 24.32 13.05 L 25.10 12.52 L 25.89 12.01 L 26.69 11.51 L 27.50 11.03 L 28.32 10.57 L 29.15 10.12 L 29.99 9.69 L 30.84 9.28 L 31.70 8.89 L 32.56 8.52 L 33.43 8.16 L 34.31 7.82 L 35.20 7.50 L 36.09 7.20 L 36.99 6.92 L 37.90 6.66 L 38.81 6.41 L 39.72 6.19 L 40.64 5.98 L 41.57 5.80 L 42.50 5.63 L 43.43 5.48 L 44.36 5.35 L 45.30 5.25 L 46.23 5.16 L 47.17 5.09 L 48.12 5.04 L 49.06 5.01 L 50.00 5.00 L 50.94 5.01 L 51.88 5.04 L 52.83 5.09 L 53.77 5.16 L 54.70 5.25 L 55.64 5.35 L 56.57 5.48 L 57.50 5.63 L 58.43 5.80 L 59.36 5.98 L 60.28 6.19 L 61.19 6.41 L 62.10 6.66 L 63.01 6.92 L 63.91 7.20 L 64.80 7.50 L 65.69 7.82 L 66.57 8.16 L 67.44 8.52 L 68.30 8.89 L 69.16 9.28 L 70.01 9.69 L 70.85 10.12 L 71.68 10.57 L 72.50 11.03 L 73.31 11.51 L 74.11 12.01 L 74.90 12.52 L 75.68 13.05 L 76.45 13.59 L 77.21 14.16 L 77.95 14.73 L 78.68 15.33 L 79.40 15.94 L 80.11 16.56 L 80.80 17.20 L 81.48 17.85 L 82.15 18.52 L 82.80 19.20 L 83.44 19.89 L 84.06 20.60 L 84.67 21.32 L 85.27 22.05 L 85.84 22.79 L 86.41 23.55 L 86.95 24.32 L 87.48 25.10 L 87.99 25.89 L 88.49 26.69 L 88.97 27.50 L 89.43 28.32 L 89.88 29.15 L 90.31 29.99 L 90.72 30.84 L 91.11 31.70 L 91.48 32.56 L 91.84 33.43 L 92.18 34.31 L 92.50 35.20 L 92.80 36.09 L 93.08 36.99 L 93.34 37.90 L 93.59 38.81 L 93.81 39.72 L 94.02 40.64 L 94.20 41.57 L 94.37 42.50 L 94.52 43.43 L 94.65 44.36 L 94.75 45.30 L 94.84 46.23 L 94.91 47.17 L 94.96 48.12 L 94.99 49.06 L 95.00 50.00 L 94.99 50.94 L 94.96 51.88 L 94.91 52.83 L 94.84 53.77 L 94.75 54.70 L 94.65 55.64 L 94.52 56.57 L 94.37 57.50 L 94.20 58.43 L 94.02 59.36 L 93.81 60.28 L 93.59 61.19 L 93.34 62.10 L 93.08 63.01 L 92.80 63.91 L 92.50 64.80 L 92.18 65.69 L 91.84 66.57 L 91.48 67.44 L 91.11 68.30 L 90.72 69.16 L 90.31 70.01 L 89.88 70.85 L 89.43 71.68 L 88.97 72.50 L 88.49 73.31 L 87.99 74.11 L 87.48 74.90 L 86.95 75.68 L 86.41 76.45 L 85.84 77.21 L 85.27 77.95 L 84.67 78.68 L 84.06 79.40 L 83.44 80.11 L 82.80 80.80 L 82.15 81.48 L 81.48 82.15 L 80.80 82.80 L 80.11 83.44 L 79.40 84.06 L 78.68 84.67 L 77.95 85.27 L 77.21 85.84 L 76.45 86.41 L 75.68 86.95 L 74.90 87.48 L 74.11 87.99 L 73.31 88.49 L 72.50 88.97 L 71.68 89.43 L 70.85 89.88 L 70.01 90.31 L 69.16 90.72 L 68.30 91.11 L 67.44 91.48 L 66.57 91.84 L 65.69 92.18 L 64.80 92.50 L 63.91 92.80 L 63.01 93.08 L 62.10 93.34 L 61.19 93.59 L 60.28 93.81 L 59.36 94.02 L 58.43 94.20 L 57.50 94.37 L 56.57 94.52 L 55.64 94.65 L 54.70 94.75 L 53.77 94.84 L 52.83 94.91 L 51.88 94.96 L 50.94 94.99 L 50.00 95.00 L 49.06 94.99 L 48.12 94.96 L 47.17 94.91 L 46.23 94.84 L 45.30 94.75 L 44.36 94.65 L 43.43 94.52 L 42.50 94.37 L 41.57 94.20 L 40.64 94.02 L 39.72 93.81 L 38.81 93.59 L 37.90 93.34 L 36.99 93.08 L 36.09 92.80 L 35.20 92.50 L 34.31 92.18 L 33.43 91.84 L 32.56 91.48 L 31.70 91.11 L 30.84 90.72 L 29.99 90.31 L 29.15 89.88 L 28.32 89.43 L 27.50 88.97 L 26.69 88.49 L 25.89 87.99 L 25.10 87.48 L 24.32 86.95 L 23.55 86.41 L 22.79 85.84 L 22.05 85.27 L 21.32 84.67 L 20.60 84.06 L 19.89 83.44 L 19.20 82.80 L 18.52 82.15 L 17.85 81.48 L 17.20 80.80 L 16.56 80.11 L 15.94 79.40 L 15.33 78.68 L 14.73 77.95 L 14.16 77.21 L 13.59 76.45 L 13.05 75.68 L 12.52 74.90 L 12.01 74.11 L 11.51 73.31 L 11.03 72.50 L 10.57 71.68 L 10.12 70.85 L 9.69 70.01 L 9.28 69.16 L 8.89 68.30 L 8.52 67.44 L 8.16 66.57 L 7.82 65.69 L 7.50 64.80 L 7.20 63.91 L 6.92 63.01 L 6.66 62.10 L 6.41 61.19 L 6.19 60.28 L 5.98 59.36 L 5.80 58.43 L 5.63 57.50 L 5.48 56.57 L 5.35 55.64 L 5.25 54.70 L 5.16 53.77 L 5.09 52.83 L 5.04 51.88 L 5.01 50.94 L 5.00 50.00 L 5.01 49.06 L 5.04 48.12 L 5.09 47.17 L 5.16 46.23 L 5.25 45.30 L 5.35 44.36 L 5.48 43.43 L 5.63 42.50 L 5.80 41.57 L 5.98 40.64 L 6.19 39.72 L 6.41 38.81 L 6.66 37.90 L 6.92 36.99 L 7.20 36.09 L 7.50 35.20 L 7.82 34.31 L 8.16 33.43 L 8.52 32.56 L 8.89 31.70 L 9.28 30.84 L 9.69 29.99 L 10.12 29.15 L 10.57 28.32 L 11.03 27.50 L 11.51 26.69 L 12.01 25.89 L 12.52 25.10 L 13.05 24.32 L 13.59 23.55 L 14.16 22.79 L 14.73 22.05 L 15.33 21.32 L 15.94 20.60 L 16.56 19.89 L 17.20 19.20 L 17.85 18.52 L 18.52 17.85 L 19.20 17.20 L 19.89 16.56 L 20.60 15.94 L 21.32 15.33 L 22.05 14.73 L 22.79 14.16 L 23.55 13.59 L 24.32 13.05 L 25.10 12.52 L 25.89 12.01 L 26.69 11.51 L 27.50 11.03 L 28.32 10.57 L 29.15 10.12 L 29.99 9.69 L 30.84 9.28 L 31.70 8.89 L 32.56 8.52 L 33.43 8.16 L 34.31 7.82 L 35.20 7.50 L 36.09 7.20 L 36.99 6.92 L 37.90 6.66 L 38.81 6.41 L 39.72 6.19 L 40.64 5.98 L 41.57 5.80 L 42.50 5.63 L 43.43 5.48 L 44.36 5.35 L 45.30 5.25 L 46.23 5.16 L 47.17 5.09 L 48.12 5.04 L 49.06 5.01 L 50.00 5.00 L 50.94 5.01 L 51.88 5.04 L 52.83 5.09 L 53.77 5.16 L 54.70 5.25 L 55.64 5.35 L 56.57 5.48 L 57.50 5.63 L 58.43 5.80 L 59.36 5.98 L 60.28 6.19 L 61.19 6.41 L 62.10 6.66 L 63.01 6.92 L 63.91 7.20 L 64.80 7.50 L 65.69 7.82 L 66.57 8.16 L 67.44 8.52 L 68.30 8.89 L 69.16 9.28 L 70.01 9.69 L 70.85 10.12 L 71.68 10.57 L 72.50 11.03 L 73.31 11.51 L 74.11 12.01 L 74.90 12.52 L 75.68 13.05 L 76.45 13.59 L 77.21 14.16 L 77.95 14.73 L 78.68 15.33 L 79.40 15.94 L 80.11 16.56 L 80.80 17.20 L 81.48 17.85 L 82.15 18.52 L 82.80 19.20 L 83.44 19.89 L 84.06 20.60 L 84.67 21.32 L 85.27 22.05 L 85.84 22.79 L 86.41 23.55 L 86.95 24.32 L 87.48 25.10 L 87.99 25.89 L 88.49 26.69 L 88.97 27.50 L 89.43 28.32 L 89.88 29.15 L 90.31 29.99 L 90.72 30.84 L 91.11 31.70 L 91.48 32.56 L 91.84 33.43 L 92.18 34.31 L 92.50 35.20 L 92.80 36.09 L 93.08 36.99 L 93.34 37.90 L 93.59 38.81 L 93.81 39.72 L 94.02 40.64 L 94.20 41.57 L 94.37 42.50 L 94.52 43.43 L 94.65 44.36 L 94.75 45.30 L 94.84 46.23 L 94.91 47.17 L 94.96 48.12 L 94.99 49.06 L 95.00 50.00 L 94.99 50.94 L 94.96 51.88 L 94.91 52.83 L 94.84 53.77 L 94.75 54.70 L 94.65 55.64 L 94.52 56.57 L 94.37 57.50 L 94.20 58.43 L 94.02 59.36 L 93.81 60.28 L 93.59 61.19 L 93.34 62.10 L 93.08 63.01 L 92.80 63.91 L 92.50 64.80 L 92.18 65.69 L 91.84 66.57 L 91.48 67.44 L 91.11 68.30 L 90.72 69.16 L 90.31 70.01 L 89.88 70.85 L 89.43 71.68 L 88.97 72.50 L 88.49 73.31 L 87.99 74.11 L 87.48 74.90 L 86.95 75.68 L 86.41 76.45 L 85.84 77.21 L 85.27 77.95 L 84.67 78.68 L 84.06 79.40 L 83.44 80.11 L 82.80 80.80 L 82.15 81.48 L 81.48 82.15 L 80.80 82.80 L 80.11 83.44 L 79.40 84.06 L 78.68 84.67 L 77.95 85.27 L 77.21 85.84 L 76.45 86.41 L 75.68 86.95 L 74.90 87.48 L 74.11 87.99 L 73.31 88.49 L 72.50 88.97 L 71.68 89.43 L 70.85 89.88 L 70.01 90.31 L 69.16 90.72 L 68.30 91.11 L 67.44 91.48 L 66.57 91.84 L 65.69 92.18 L 64.80 92.50 L 63.91 92.80 L 63.01 93.08 L 62.10 93.34 L 61.19 93.59 L 60.28 93.81 L 59.36 94.02 L 58.43 94.20 L 57.50 94.37 L 56.57 94.52 L 55.64 94.65 L 54.70 94.75 L 53.77 94.84 L 52.83 94.91 L 51.88 94.96 L 50.94 94.99 L 50.00 95.00 L 49.06 94.99 L 48.12 94.96 L 47.17 94.91 L 46.23 94.84 L 45.30 94.75 L 44.36 94.65 L 43.43 94.52 L 42.50 94.37 L 41.57 94.20 L 40.64 94.02 L 39.72 93.81 L 38.81 93.59 L 37.90 93.34 L 36.99 93.08 L 36.09 92.80 L 35.20 92.50 L 34.31 92.18 L 33.43 91.84 L 32.56 91.48 L 31.70 91.11 L 30.84 90.72 L 29.99 90.31 L 29.15 89.88 L 28.32 89.43 L 27.50 88.97 L 26.69 88.49 L 25.89 87.99 L 25.10 87.48 L 24.32 86.95 L 23.55 86.41 L 22.79 85.84 L 22.05 85.27 L 21.32 84.67 L 20.60 84.06 L 19.89 83.44 L 19.20 82.80 L 18.52 82.15 L 17.85 81.48 L 17.20 80.80 L 16.56 80.11 L 15.94 79.40 L 15.33 78.68 L 14.73 77.95 L 14.16 77.21 L 13.59 76.45 L 13.05 75.68 L 12.52 74.90 L 12.01 74.11 L 11.51 73.31 L 11.03 72.50 L 10.57 71.68 L 10.12 70.85 L 9.69 70.01 L 9.28 69.16 L 8.89 68.30 L 8.52 67.44 L 8.16 66.57 L 7.82 65.69 L 7.50 64.80 L 7.20 63.91 L 6.92 63.01 L 6.66 62.10 L 6.41 61.19 L 6.19 60.28 L 5.98 59.36 L 5.80 58.43 L 5.63 57.50 L 5.48 56.57 L 5.35 55.64 L 5.25 54.70 L 5.16 53.77 L 5.09 52.83 L 5.04 51.88 L 5.01 50.94 L 5.00 50.00 L 5.01 49.06 L 5.04 48.12 L 5.09 47.17 L 5.16 46.23 L 5.25 45.30 L 5.35 44.36 L 5.48 43.43 L 5.63 42.50 L 5.80 41.57 L 5.98 40.64 L 6.19 39.72 L 6.41 38.81 L 6.66 37.90 L 6.92 36.99 L 7.20 36.09 L 7.50 35.20 L 7.82 34.31 L 8.16 33.43 L 8.52 32.56 L 8.89 31.70 L 9.28 30.84 L 9.69 29.99 L 10.12 29.15 L 10.57 28.32 L 11.03 27.50 L 11.51 26.69 L 12.01 25.89 L 12.52 25.10 L 13.05 24.32 L 13.59 23.55 L 14.16 22.79 L 14.73 22.05 L 15.33 21.32 L 15.94 20.60 L 16.56 19.89 L 17.20 19.20 L 17.85 18.52 L 18.52 17.85 L 19.20 17.20 L 19.89 16.56 L 20.60 15.94 L 21.32 15.33 L 22.05 14.73 L 22.79 14.16 L 23.55 13.59 L 24.32 13.05 L 25.10 12.52 L 25.89 12.01 L 26.69 11.51 L 27.50 11.03 L 28.32 10.57 L 29.15 10.12 L 29.99 9.69 L 30.84 9.28 L 31.70 8.89 L 32.56 8.52 L 33.43 8.16 L 34.31 7.82 L 35.20 7.50 L 36.09 7.20 L 36.99 6.92 L 37.90 6.66 L 38.81 6.41 L 39.72 6.19 L 40.64 5.98 L 41.57 5.80 L 42.50 5.63 L 43.43 5.48 L 44.36 5.35 L 45.30 5.25 L 46.23 5.16 L 47.17 5.09 L 48.12 5.04 L 49.06 5.01 L 50.00 5.00 L 50.94 5.01 L 51.88 5.04 L 52.83 5.09 L 53.77 5.16 L 54.70 5.25 L 55.64 5.35 L 56.57 5.48 L 57.50 5.63 L 58.43 5.80 L 59.36 5.98 L 60.28 6.19 L 61.19 6.41 L 62.10 6.66 L 63.01 6.92 L 63.91 7.20 L 64.80 7.50 L 65.69 7.82 L 66.57 8.16 L 67.44 8.52 L 68.30 8.89 L 69.16 9.28 L 70.01 9.69 L 70.85 10.12 L 71.68 10.57 L 72.50 11.03 L 73.31 11.51 L 74.11 12.01 L 74.90 12.52 L 75.68 13.05 L 76.45 13.59 L 77.21 14.16 L 77.95 14.73 L 78.68 15.33 L 79.40 15.94 L 80.11 16.56 L 80.80 17.20 L 81.48 17.85 L 82.15 18.52 L 82.80 19.20 L 83.44 19.89 L 84.06 20.60 L 84.67 21.32 L 85.27 22.05 L 85.84 22.79 L 86.41 23.55 L 86.95 24.32 L 87.48 25.10 L 87.99 25.89 L 88.49 26.69 L 88.97 27.50 L 89.43 28.32 L 89.88 29.15 L 90.31 29.99 L 90.72 30.84 L 91.11 31.70 L 91.48 32.56 L 91.84 33.43 L 92.18 34.31 L 92.50 35.20 L 92.80 36.09 L 93.08 36.99 L 93.34 37.90 L 93.59 38.81 L 93.81 39.72 L 94.02 40.64 L 94.20 41.57 L 94.37 42.50 L 94.52 43.43 L 94.65 44.36 L 94.75 45.30 L 94.84 46.23 L 94.91 47.17 L 94.96 48.12 L 94.99 49.06 L 95.00 50.00" stroke="#9333ea" stroke-width="2.8" fill="none" stroke-linecap="round" opacity="0.9" style="stroke-dasharray: none; stroke-dashoffset: 0; animation: auto ease 0s 1 normal none running none;"/></svg>