<?xml version="1.0" encoding="UTF-8"?>
<svg xmlns="http://www.w3.org/2000/svg" viewBox="0 0 400 400" width="400" height="400" role="img" aria-labelledby="title-concept-svatantrya">
<title id="title-concept-svatantrya">Svātantrya — Absolute Freedom</title>
<rect x="0" y="0" width="400" height="400" fill="#f7f3e8"/>
<rect x="24.00" y="24.00" width="352.00" height="352.00" fill="none" stroke="#cbbf9f" stroke-width="1.2" opacity="1.0"/>
<line x1="200.00" y1="29.00" x2="200.00" y2="19.00" stroke="#e0d6bd" stroke-width="1.0" opacity="1.0"/>
<line x1="371.00" y1="200.00" x2="381.00" y2="200.00" stroke="#e0d6bd" stroke-width="1.0" opacity="1.0"/>
<line x1="200.00" y1="371.00" x2="200.00" y2="381.00" stroke="#e0d6bd" stroke-width="1.0" opacity="1.0"/>
<line x1="29.00" y1="200.00" x2="19.00" y2="200.00" stroke="#e0d6bd" stroke-width="1.0" opacity="1.0"/>
<g fill="none" stroke="#221f1a" stroke-width="1.6" stroke-linecap="round" stroke-linejoin="round">
<circle cx="200.00" cy="200.00" r="140.00" fill="none" stroke="#9a7322" stroke-width="1.6" opacity="1.0"/>
<line x1="200.00" y1="190.00" x2="200.00" y2="50.00" stroke="#9a7322" stroke-width="1.0" opacity="1.0"/>
<line x1="202.59" y1="190.34" x2="238.82" y2="55.11" stroke="#9a7322" stroke-width="1.0" opacity="1.0"/>
<line x1="205.00" y1="191.34" x2="275.00" y2="70.10" stroke="#9a7322" stroke-width="1.0" opacity="1.0"/>
<line x1="207.07" y1="192.93" x2="306.07" y2="93.93" stroke="#9a7322" stroke-width="1.0" opacity="1.0"/>
<line x1="208.66" y1="195.00" x2="329.90" y2="125.00" stroke="#9a7322" stroke-width="1.0" opacity="1.0"/>
<line x1="209.66" y1="197.41" x2="344.89" y2="161.18" stroke="#9a7322" stroke-width="1.0" opacity="1.0"/>
<line x1="210.00" y1="200.00" x2="350.00" y2="200.00" stroke="#9a7322" stroke-width="1.0" opacity="1.0"/>
<line x1="209.66" y1="202.59" x2="344.89" y2="238.82" stroke="#9a7322" stroke-width="1.0" opacity="1.0"/>
<line x1="208.66" y1="205.00" x2="329.90" y2="275.00" stroke="#9a7322" stroke-width="1.0" opacity="1.0"/>
<line x1="207.07" y1="207.07" x2="306.07" y2="306.07" stroke="#9a7322" stroke-width="1.0" opacity="1.0"/>
<line x1="205.00" y1="208.66" x2="275.00" y2="329.90" stroke="#9a7322" stroke-width="1.0" opacity="1.0"/>
<line x1="202.59" y1="209.66" x2="238.82" y2="344.89" stroke="#9a7322" stroke-width="1.0" opacity="1.0"/>
<line x1="200.00" y1="210.00" x2="200.00" y2="350.00" stroke="#9a7322" stroke-width="1.0" opacity="1.0"/>
<line x1="197.41" y1="209.66" x2="161.18" y2="344.89" stroke="#9a7322" stroke-width="1.0" opacity="1.0"/>
<line x1="195.00" y1="208.66" x2="125.00" y2="329.90" stroke="#9a7322" stroke-width="1.0" opacity="1.0"/>
<line x1="192.93" y1="207.07" x2="93.93" y2="306.07" stroke="#9a7322" stroke-width="1.0" opacity="1.0"/>
<line x1="191.34" y1="205.00" x2="70.10" y2="275.00" stroke="#9a7322" stroke-width="1.0" opacity="1.0"/>
<line x1="190.34" y1="202.59" x2="55.11" y2="238.82" stroke="#9a7322" stroke-width="1.0" opacity="1.0"/>
<line x1="190.00" y1="200.00" x2="50.00" y2="200.00" stroke="#9a7322" stroke-width="1.0" opacity="1.0"/>
<line x1="190.34" y1="197.41" x2="55.11" y2="161.18" stroke="#9a7322" stroke-width="1.0" opacity="1.0"/>
<line x1="191.34" y1="195.00" x2="70.10" y2="125.00" stroke="#9a7322" stroke-width="1.0" opacity="1.0"/>
<line x1="192.93" y1="192.93" x2="93.93" y2="93.93" stroke="#9a7322" stroke-width="1.0" opacity="1.0"/>
<line x1="195.00" y1="191.34" x2="125.00" y2="70.10" stroke="#9a7322" stroke-width="1.0" opacity="1.0"/>
<line x1="197.41" y1="190.34" x2="161.18" y2="55.11" stroke="#9a7322" stroke-width="1.0" opacity="1.0"/>
<circle cx="200.00" cy="200.00" r="10.00" fill="#f7f3e8" stroke="#221f1a" stroke-width="1.0"/>
</g>
</svg>
