<?xml version="1.0" encoding="UTF-8"?>
<svg xmlns="http://www.w3.org/2000/svg" viewBox="0 0 400 400" width="400" height="400" role="img" aria-labelledby="title-realm-elements">
<title id="title-realm-elements">Pañca Mahābhūta — The Great Elements</title>
<rect x="0" y="0" width="400" height="400" fill="#f7f3e8"/>
<rect x="24.00" y="24.00" width="352.00" height="352.00" fill="none" stroke="#cbbf9f" stroke-width="1.2" opacity="1.0"/>
<line x1="200.00" y1="29.00" x2="200.00" y2="19.00" stroke="#e0d6bd" stroke-width="1.0" opacity="1.0"/>
<line x1="371.00" y1="200.00" x2="381.00" y2="200.00" stroke="#e0d6bd" stroke-width="1.0" opacity="1.0"/>
<line x1="200.00" y1="371.00" x2="200.00" y2="381.00" stroke="#e0d6bd" stroke-width="1.0" opacity="1.0"/>
<line x1="29.00" y1="200.00" x2="19.00" y2="200.00" stroke="#e0d6bd" stroke-width="1.0" opacity="1.0"/>
<g fill="none" stroke="#221f1a" stroke-width="1.6" stroke-linecap="round" stroke-linejoin="round">
<rect x="60.00" y="60.00" width="280.00" height="280.00" fill="none" stroke="#221f1a" stroke-width="1.6" opacity="1.0"/>
<circle cx="200.00" cy="200.00" r="115.00" fill="#3f5872" opacity="0.3" stroke="none"/>
<circle cx="200.00" cy="200.00" r="93.75" fill="#5f7562" opacity="0.3" stroke="none"/>
<circle cx="200.00" cy="200.00" r="72.50" fill="#a13f2e" opacity="0.3" stroke="none"/>
<circle cx="200.00" cy="200.00" r="51.25" fill="#7c8896" opacity="0.3" stroke="none"/>
<circle cx="200.00" cy="200.00" r="30.00" fill="#a9761f" opacity="0.3" stroke="none"/>
<circle cx="200.00" cy="200.00" r="115.00" fill="none" stroke="#221f1a" stroke-width="1.6" opacity="1.0"/>
<path d="M 200.00 200.00 Q 188.51 161.96 200.00 127.75 Q 211.49 161.96 200.00 200.00 Z" fill="none" stroke="#221f1a" stroke-width="1.0"/>
<path d="M 200.00 200.00 Q 227.20 171.03 262.57 163.88 Q 238.69 190.93 200.00 200.00 Z" fill="none" stroke="#221f1a" stroke-width="1.0"/>
<path d="M 200.00 200.00 Q 238.69 209.07 262.57 236.12 Q 227.20 228.97 200.00 200.00 Z" fill="none" stroke="#221f1a" stroke-width="1.0"/>
<path d="M 200.00 200.00 Q 211.49 238.04 200.00 272.25 Q 188.51 238.04 200.00 200.00 Z" fill="none" stroke="#221f1a" stroke-width="1.0"/>
<path d="M 200.00 200.00 Q 172.80 228.97 137.43 236.13 Q 161.31 209.07 200.00 200.00 Z" fill="none" stroke="#221f1a" stroke-width="1.0"/>
<path d="M 200.00 200.00 Q 161.31 190.93 137.43 163.88 Q 172.80 171.03 200.00 200.00 Z" fill="none" stroke="#221f1a" stroke-width="1.0"/>
<circle cx="200.00" cy="200.00" r="7.00" fill="#221f1a" opacity="1.0"/>
</g>
</svg>
