<?xml version="1.0" encoding="UTF-8"?>
<svg xmlns="http://www.w3.org/2000/svg" viewBox="0 0 400 400" width="400" height="400" role="img" aria-labelledby="title-tattva-16">
<title id="title-tattva-16">Manas — Conceptual Mind</title>
<rect x="0" y="0" width="400" height="400" fill="#f7f3e8"/>
<rect x="24.00" y="24.00" width="352.00" height="352.00" fill="none" stroke="#cbbf9f" stroke-width="1.2" opacity="1.0"/>
<line x1="200.00" y1="29.00" x2="200.00" y2="19.00" stroke="#e0d6bd" stroke-width="1.0" opacity="1.0"/>
<line x1="371.00" y1="200.00" x2="381.00" y2="200.00" stroke="#e0d6bd" stroke-width="1.0" opacity="1.0"/>
<line x1="200.00" y1="371.00" x2="200.00" y2="381.00" stroke="#e0d6bd" stroke-width="1.0" opacity="1.0"/>
<line x1="29.00" y1="200.00" x2="19.00" y2="200.00" stroke="#e0d6bd" stroke-width="1.0" opacity="1.0"/>
<g fill="none" stroke="#221f1a" stroke-width="1.6" stroke-linecap="round" stroke-linejoin="round">
<circle cx="200.00" cy="200.00" r="118.00" fill="none" stroke="#221f1a" stroke-width="1.6" opacity="1.0"/>
<polygon points="200.00,112.00 123.79,244.00 276.21,244.00" fill="none" stroke="#221f1a" stroke-width="1.6" opacity="1.0"/>
<circle cx="200.00" cy="112.00" r="13.00" fill="#b5768a" opacity="1.0"/>
<line x1="200.00" y1="96.00" x2="200.00" y2="88.00" stroke="#b5768a" stroke-width="1.0" opacity="0.7"/>
<line x1="211.31" y1="100.69" x2="216.97" y2="95.03" stroke="#b5768a" stroke-width="1.0" opacity="0.7"/>
<line x1="216.00" y1="112.00" x2="224.00" y2="112.00" stroke="#b5768a" stroke-width="1.0" opacity="0.7"/>
<line x1="211.31" y1="123.31" x2="216.97" y2="128.97" stroke="#b5768a" stroke-width="1.0" opacity="0.7"/>
<line x1="200.00" y1="128.00" x2="200.00" y2="136.00" stroke="#b5768a" stroke-width="1.0" opacity="0.7"/>
<line x1="188.69" y1="123.31" x2="183.03" y2="128.97" stroke="#b5768a" stroke-width="1.0" opacity="0.7"/>
<line x1="184.00" y1="112.00" x2="176.00" y2="112.00" stroke="#b5768a" stroke-width="1.0" opacity="0.7"/>
<line x1="188.69" y1="100.69" x2="183.03" y2="95.03" stroke="#b5768a" stroke-width="1.0" opacity="0.7"/>
</g>
</svg>
