<?xml version="1.0" encoding="UTF-8"?>
<svg xmlns="http://www.w3.org/2000/svg" viewBox="0 0 400 400" width="400" height="400" role="img" aria-labelledby="title-tattva-01">
<title id="title-tattva-01">Shiva Tattva — Pure Awareness</title>
<rect x="0" y="0" width="400" height="400" fill="#f7f3e8"/>
<rect x="24.00" y="24.00" width="352.00" height="352.00" fill="none" stroke="#cbbf9f" stroke-width="1.2" opacity="1.0"/>
<line x1="200.00" y1="29.00" x2="200.00" y2="19.00" stroke="#e0d6bd" stroke-width="1.0" opacity="1.0"/>
<line x1="371.00" y1="200.00" x2="381.00" y2="200.00" stroke="#e0d6bd" stroke-width="1.0" opacity="1.0"/>
<line x1="200.00" y1="371.00" x2="200.00" y2="381.00" stroke="#e0d6bd" stroke-width="1.0" opacity="1.0"/>
<line x1="29.00" y1="200.00" x2="19.00" y2="200.00" stroke="#e0d6bd" stroke-width="1.0" opacity="1.0"/>
<g fill="none" stroke="#221f1a" stroke-width="1.6" stroke-linecap="round" stroke-linejoin="round">
<line x1="200.00" y1="200.00" x2="200.00" y2="45.00" stroke="#3f5872" stroke-width="1.0" opacity="1.0"/>
<line x1="200.00" y1="200.00" x2="230.24" y2="47.98" stroke="#3f5872" stroke-width="1.0" opacity="1.0"/>
<line x1="200.00" y1="200.00" x2="259.32" y2="56.80" stroke="#3f5872" stroke-width="1.0" opacity="1.0"/>
<line x1="200.00" y1="200.00" x2="286.11" y2="71.12" stroke="#3f5872" stroke-width="1.0" opacity="1.0"/>
<line x1="200.00" y1="200.00" x2="309.60" y2="90.40" stroke="#3f5872" stroke-width="1.0" opacity="1.0"/>
<line x1="200.00" y1="200.00" x2="328.88" y2="113.89" stroke="#3f5872" stroke-width="1.0" opacity="1.0"/>
<line x1="200.00" y1="200.00" x2="343.20" y2="140.68" stroke="#3f5872" stroke-width="1.0" opacity="1.0"/>
<line x1="200.00" y1="200.00" x2="352.02" y2="169.76" stroke="#3f5872" stroke-width="1.0" opacity="1.0"/>
<line x1="200.00" y1="200.00" x2="355.00" y2="200.00" stroke="#3f5872" stroke-width="1.0" opacity="1.0"/>
<line x1="200.00" y1="200.00" x2="352.02" y2="230.24" stroke="#3f5872" stroke-width="1.0" opacity="1.0"/>
<line x1="200.00" y1="200.00" x2="343.20" y2="259.32" stroke="#3f5872" stroke-width="1.0" opacity="1.0"/>
<line x1="200.00" y1="200.00" x2="328.88" y2="286.11" stroke="#3f5872" stroke-width="1.0" opacity="1.0"/>
<line x1="200.00" y1="200.00" x2="309.60" y2="309.60" stroke="#3f5872" stroke-width="1.0" opacity="1.0"/>
<line x1="200.00" y1="200.00" x2="286.11" y2="328.88" stroke="#3f5872" stroke-width="1.0" opacity="1.0"/>
<line x1="200.00" y1="200.00" x2="259.32" y2="343.20" stroke="#3f5872" stroke-width="1.0" opacity="1.0"/>
<line x1="200.00" y1="200.00" x2="230.24" y2="352.02" stroke="#3f5872" stroke-width="1.0" opacity="1.0"/>
<line x1="200.00" y1="200.00" x2="200.00" y2="355.00" stroke="#3f5872" stroke-width="1.0" opacity="1.0"/>
<line x1="200.00" y1="200.00" x2="169.76" y2="352.02" stroke="#3f5872" stroke-width="1.0" opacity="1.0"/>
<line x1="200.00" y1="200.00" x2="140.68" y2="343.20" stroke="#3f5872" stroke-width="1.0" opacity="1.0"/>
<line x1="200.00" y1="200.00" x2="113.89" y2="328.88" stroke="#3f5872" stroke-width="1.0" opacity="1.0"/>
<line x1="200.00" y1="200.00" x2="90.40" y2="309.60" stroke="#3f5872" stroke-width="1.0" opacity="1.0"/>
<line x1="200.00" y1="200.00" x2="71.12" y2="286.11" stroke="#3f5872" stroke-width="1.0" opacity="1.0"/>
<line x1="200.00" y1="200.00" x2="56.80" y2="259.32" stroke="#3f5872" stroke-width="1.0" opacity="1.0"/>
<line x1="200.00" y1="200.00" x2="47.98" y2="230.24" stroke="#3f5872" stroke-width="1.0" opacity="1.0"/>
<line x1="200.00" y1="200.00" x2="45.00" y2="200.00" stroke="#3f5872" stroke-width="1.0" opacity="1.0"/>
<line x1="200.00" y1="200.00" x2="47.98" y2="169.76" stroke="#3f5872" stroke-width="1.0" opacity="1.0"/>
<line x1="200.00" y1="200.00" x2="56.80" y2="140.68" stroke="#3f5872" stroke-width="1.0" opacity="1.0"/>
<line x1="200.00" y1="200.00" x2="71.12" y2="113.89" stroke="#3f5872" stroke-width="1.0" opacity="1.0"/>
<line x1="200.00" y1="200.00" x2="90.40" y2="90.40" stroke="#3f5872" stroke-width="1.0" opacity="1.0"/>
<line x1="200.00" y1="200.00" x2="113.89" y2="71.12" stroke="#3f5872" stroke-width="1.0" opacity="1.0"/>
<line x1="200.00" y1="200.00" x2="140.68" y2="56.80" stroke="#3f5872" stroke-width="1.0" opacity="1.0"/>
<line x1="200.00" y1="200.00" x2="169.76" y2="47.98" stroke="#3f5872" stroke-width="1.0" opacity="1.0"/>
<circle cx="200.00" cy="200.00" r="6.00" fill="#3f5872" opacity="1.0"/>
</g>
</svg>
