<svg xmlns="http://www.w3.org/2000/svg" viewBox="0 0 100 100"><rect width="100" height="100" rx="20" fill="#f4f1ea"/><path d="M50.60 50.00 L50.61 50.03 L50.62 50.06 L50.62 50.10 L50.63 50.13 L50.63 50.17 L50.63 50.20 L50.63 50.24 L50.62 50.28 L50.62 50.31 L50.61 50.35 L50.60 50.39 L50.59 50.43 L50.57 50.47 L50.56 50.50 L50.54 50.54 L50.52 50.58 L50.50 50.61 L50.47 50.65 L50.44 50.68 L50.41 50.72 L50.38 50.75 L50.35 50.78 L50.31 50.81 L50.27 50.84 L50.23 50.87 L50.19 50.89 L50.14 50.91 L50.10 50.94 L50.05 50.95 L50.00 50.97 L49.95 50.99 L49.90 51.00 L49.84 51.01 L49.78 51.01 L49.73 51.02 L49.67 51.02 L49.61 51.01 L49.55 51.01 L49.49 51.00 L49.43 50.99 L49.37 50.97 L49.31 50.95 L49.25 50.93 L49.19 50.90 L49.13 50.87 L49.07 50.84 L49.01 50.80 L48.95 50.76 L48.90 50.72 L48.84 50.67 L48.79 50.62 L48.74 50.56 L48.69 50.50 L48.64 50.44 L48.60 50.38 L48.56 50.31 L48.52 50.23 L48.49 50.16 L48.46 50.08 L48.43 50.00 L48.41 49.92 L48.39 49.83 L48.37 49.74 L48.36 49.65 L48.36 49.56 L48.36 49.47 L48.36 49.37 L48.37 49.27 L48.38 49.18 L48.40 49.08 L48.43 48.98 L48.46 48.88 L48.50 48.78 L48.54 48.68 L48.59 48.59 L48.64 48.49 L48.70 48.40 L48.77 48.30 L48.84 48.21 L48.92 48.13 L49.00 48.04 L49.09 47.96 L49.19 47.88 L49.29 47.80 L49.39 47.73 L49.50 47.67 L49.62 47.61 L49.74 47.55 L49.87 47.50 L50.00 47.46 L50.14 47.42 L50.27 47.39 L50.42 47.37 L50.56 47.35 L50.71 47.34 L50.86 47.34 L51.02 47.35 L51.18 47.36 L51.33 47.38 L51.49 47.42 L51.65 47.46 L51.81 47.51 L51.97 47.57 L52.13 47.64 L52.29 47.71 L52.44 47.80 L52.59 47.90 L52.74 48.01 L52.89 48.12 L53.03 48.25 L53.17 48.38 L53.30 48.53 L53.43 48.68 L53.55 48.85 L53.67 49.02 L53.77 49.20 L53.87 49.39 L53.96 49.58 L54.04 49.79 L54.11 50.00 L54.17 50.22 L54.22 50.44 L54.26 50.68 L54.29 50.91 L54.30 51.15 L54.31 51.40 L54.30 51.65 L54.27 51.90 L54.23 52.16 L54.18 52.41 L54.11 52.67 L54.03 52.93 L53.94 53.19 L53.83 53.44 L53.70 53.70 L53.56 53.95 L53.40 54.20 L53.23 54.44 L53.04 54.68 L52.83 54.91 L52.61 55.13 L52.38 55.35 L52.13 55.55 L51.87 55.75 L51.59 55.93 L51.30 56.10 L50.99 56.26 L50.67 56.41 L50.34 56.54 L50.00 56.65 L49.65 56.75 L49.28 56.83 L48.91 56.90 L48.52 56.94 L48.13 56.96 L47.74 56.97 L47.33 56.95 L46.92 56.91 L46.51 56.85 L46.09 56.77 L45.68 56.66 L45.26 56.53 L44.84 56.37 L44.43 56.19 L44.01 55.99 L43.61 55.76 L43.21 55.50 L42.81 55.22 L42.43 54.92 L42.06 54.59 L41.70 54.23 L41.35 53.85 L41.02 53.45 L40.70 53.02 L40.40 52.57 L40.12 52.10 L39.87 51.61 L39.63 51.09 L39.42 50.55 L39.23 50.00 L39.07 49.43 L38.94 48.84 L38.84 48.23 L38.77 47.61 L38.73 46.98 L38.73 46.34 L38.75 45.68 L38.82 45.02 L38.92 44.35 L39.05 43.68 L39.23 43.00 L39.44 42.33 L39.69 41.65 L39.98 40.98 L40.32 40.32 L40.69 39.66 L41.10 39.01 L41.55 38.37 L42.05 37.75 L42.58 37.15 L43.15 36.56 L43.77 36.00 L44.42 35.46 L45.11 34.95 L45.84 34.47 L46.60 34.02 L47.40 33.60 L48.24 33.22 L49.10 32.88 L50.00 32.58 L50.93 32.32 L51.88 32.11 L52.86 31.95 L53.86 31.83 L54.89 31.77 L55.93 31.76 L56.98 31.80 L58.06 31.91 L59.14 32.07 L60.23 32.29 L61.32 32.57 L62.41 32.91 L63.51 33.32 L64.59 33.79 L65.67 34.33 L66.73 34.93 L67.78 35.60 L68.81 36.33 L69.82 37.13 L70.79 38.00 L71.74 38.92 L72.65 39.92 L73.52 40.97 L74.35 42.09 L75.13 43.27 L75.86 44.50 L76.53 45.80 L77.15 47.15 L77.70 48.55 L78.19 50.00 L78.60 51.50 L78.95 53.04 L79.21 54.63 L79.40 56.25 L79.50 57.90 L79.52 59.59 L79.44 61.30 L79.28 63.03 L79.02 64.78 L78.66 66.55 L78.20 68.31 L77.64 70.08 L76.98 71.85 L76.22 73.61 L75.35 75.35 L74.38 77.08 L73.30 78.77 L72.11 80.44 L70.82 82.06 L69.42 83.64 L67.92 85.17 L66.32 86.65 L64.61 88.06 L62.80 89.40 L60.89 90.66 L58.89 91.84 L56.80 92.93 L54.60 93.76 L52.30 93.94 L50.00 94.00 L47.70 93.94 L45.40 93.76 L43.12 93.46 L40.85 93.04 L38.61 92.50 L36.40 91.85 L34.23 91.08 L32.10 90.20 L30.02 89.20 L28.00 88.11 L26.04 86.90 L24.14 85.60 L22.31 84.19 L20.56 82.70 L18.89 81.11 L17.30 79.44 L15.81 77.69 L14.40 75.86 L13.10 73.96 L11.89 72.00 L10.80 69.98 L9.80 67.90 L8.92 65.77 L8.15 63.60 L7.50 61.39 L6.96 59.15 L6.54 56.88 L6.24 54.60 L6.06 52.30 L6.00 50.00 L6.06 47.70 L6.24 45.40 L6.54 43.12 L6.96 40.85 L7.50 38.61 L8.15 36.40 L8.92 34.23 L9.80 32.10 L10.80 30.02 L11.89 28.00 L13.10 26.04 L14.40 24.14 L15.81 22.31 L17.30 20.56 L18.89 18.89 L20.56 17.30 L22.31 15.81 L24.14 14.40 L26.04 13.10 L28.00 11.89 L30.02 10.80 L32.10 9.80 L34.23 8.92 L36.40 8.15 L38.61 7.50 L40.85 6.96 L43.12 6.54 L45.40 6.24 L47.70 6.06 L50.00 6.00 L52.30 6.06 L54.60 6.24 L56.88 6.54 L59.15 6.96 L61.39 7.50 L63.60 8.15 L65.77 8.92 L67.90 9.80 L69.98 10.80 L72.00 11.89 L73.96 13.10 L75.86 14.40 L77.69 15.81 L79.44 17.30 L81.11 18.89 L82.70 20.56 L84.19 22.31 L85.60 24.14 L86.90 26.04 L88.11 28.00 L89.20 30.02 L90.20 32.10 L91.08 34.23 L91.85 36.40 L92.50 38.61 L93.04 40.85 L93.46 43.12 L93.76 45.40 L93.94 47.70 L94.00 50.00 L93.94 52.30 L93.76 54.60 L93.46 56.88 L93.04 59.15 L92.50 61.39 L91.85 63.60 L91.08 65.77 L90.20 67.90 L89.20 69.98 L88.11 72.00 L86.90 73.96 L85.60 75.86 L84.19 77.69 L82.70 79.44 L81.11 81.11 L79.44 82.70 L77.69 84.19 L75.86 85.60 L73.96 86.90 L72.00 88.11 L69.98 89.20 L67.90 90.20 L65.77 91.08 L63.60 91.85 L61.39 92.50 L59.15 93.04 L56.88 93.46 L54.60 93.76 L52.30 93.94 L50.00 94.00 L47.70 93.94 L45.40 93.76 L43.12 93.46 L40.85 93.04 L38.61 92.50 L36.40 91.85 L34.23 91.08 L32.10 90.20 L30.02 89.20 L28.00 88.11 L26.04 86.90 L24.14 85.60 L22.31 84.19 L20.56 82.70 L18.89 81.11 L17.30 79.44 L15.81 77.69 L14.40 75.86 L13.10 73.96 L11.89 72.00 L10.80 69.98 L9.80 67.90 L8.92 65.77 L8.15 63.60 L7.50 61.39 L6.96 59.15 L6.54 56.88 L6.24 54.60 L6.06 52.30 L6.00 50.00 L6.06 47.70 L6.24 45.40 L6.54 43.12 L6.96 40.85 L7.50 38.61 L8.15 36.40 L8.92 34.23 L9.80 32.10 L10.80 30.02 L11.89 28.00 L13.10 26.04 L14.40 24.14 L15.81 22.31 L17.30 20.56 L18.89 18.89 L20.56 17.30 L22.31 15.81 L24.14 14.40 L26.04 13.10 L28.00 11.89 L30.02 10.80 L32.10 9.80 L34.23 8.92 L36.40 8.15 L38.61 7.50 L40.85 6.96 L43.12 6.54 L45.40 6.24 L47.70 6.06 L50.00 6.00 L52.30 6.06 L54.60 6.24 L56.88 6.54 L59.15 6.96 L61.39 7.50 L63.60 8.15 L65.77 8.92 L67.90 9.80 L69.98 10.80 L72.00 11.89 L73.96 13.10 L75.86 14.40 L77.69 15.81 L79.44 17.30 L81.11 18.89 L82.70 20.56 L84.19 22.31 L85.60 24.14 L86.90 26.04 L88.11 28.00 L89.20 30.02 L90.20 32.10 L91.08 34.23 L91.85 36.40 L92.50 38.61 L93.04 40.85 L93.46 43.12 L93.76 45.40 L93.94 47.70 L94.00 50.00 L93.94 52.30 L93.76 54.60 L93.46 56.88 L93.04 59.15 L92.50 61.39 L91.85 63.60 L91.08 65.77 L90.20 67.90 L89.20 69.98 L88.11 72.00 L86.90 73.96 L85.60 75.86 L84.19 77.69 L82.70 79.44 L81.11 81.11 L79.44 82.70 L77.69 84.19 L75.86 85.60 L73.96 86.90 L72.00 88.11 L69.98 89.20 L67.90 90.20 L65.77 91.08 L63.60 91.85 L61.39 92.50 L59.15 93.04 L56.88 93.46 L54.60 93.76 L52.30 93.94 L50.00 94.00 L47.70 93.94 L45.40 93.76 L43.12 93.46 L40.85 93.04 L38.61 92.50 L36.40 91.85 L34.23 91.08 L32.10 90.20 L30.02 89.20 L28.00 88.11 L26.04 86.90 L24.14 85.60 L22.31 84.19 L20.56 82.70 L18.89 81.11 L17.30 79.44 L15.81 77.69 L14.40 75.86 L13.10 73.96 L11.89 72.00 L10.80 69.98 L9.80 67.90 L8.92 65.77 L8.15 63.60 L7.50 61.39 L6.96 59.15 L6.54 56.88 L6.24 54.60 L6.06 52.30 L6.00 50.00 L6.06 47.70 L6.24 45.40 L6.54 43.12 L6.96 40.85 L7.50 38.61 L8.15 36.40 L8.92 34.23 L9.80 32.10 L10.80 30.02 L11.89 28.00 L13.10 26.04 L14.40 24.14 L15.81 22.31 L17.30 20.56 L18.89 18.89 L20.56 17.30 L22.31 15.81 L24.14 14.40 L26.04 13.10 L28.00 11.89 L30.02 10.80 L32.10 9.80 L34.23 8.92 L36.40 8.15 L38.61 7.50 L40.85 6.96 L43.12 6.54 L45.40 6.24 L47.70 6.06 L50.00 6.00 L52.30 6.06 L54.60 6.24 L56.88 6.54 L59.15 6.96 L61.39 7.50 L63.60 8.15 L65.77 8.92 L67.90 9.80 L69.98 10.80 L72.00 11.89 L73.96 13.10 L75.86 14.40 L77.69 15.81 L79.44 17.30 L81.11 18.89 L82.70 20.56 L84.19 22.31 L85.60 24.14 L86.90 26.04 L88.11 28.00 L89.20 30.02 L90.20 32.10 L91.08 34.23 L91.85 36.40 L92.50 38.61 L93.04 40.85 L93.46 43.12 L93.76 45.40 L93.94 47.70 L94.00 50.00 L93.94 52.30 L93.76 54.60 L93.46 56.88 L93.04 59.15 L92.50 61.39 L91.85 63.60 L91.08 65.77 L90.20 67.90 L89.20 69.98 L88.11 72.00 L86.90 73.96 L85.60 75.86 L84.19 77.69 L82.70 79.44 L81.11 81.11 L79.44 82.70 L77.69 84.19 L75.86 85.60 L73.96 86.90 L72.00 88.11 L69.98 89.20 L67.90 90.20 L65.77 91.08 L63.60 91.85 L61.39 92.50 L59.15 93.04 L56.88 93.46 L54.60 93.76 L52.30 93.94 L50.00 94.00 L47.70 93.94 L45.40 93.76 L43.12 93.46 L40.85 93.04 L38.61 92.50 L36.40 91.85 L34.23 91.08 L32.10 90.20 L30.02 89.20 L28.00 88.11 L26.04 86.90 L24.14 85.60 L22.31 84.19 L20.56 82.70 L18.89 81.11 L17.30 79.44 L15.81 77.69 L14.40 75.86 L13.10 73.96 L11.89 72.00 L10.80 69.98 L9.80 67.90 L8.92 65.77 L8.15 63.60 L7.50 61.39 L6.96 59.15 L6.54 56.88 L6.24 54.60 L6.06 52.30 L6.00 50.00 L6.06 47.70 L6.24 45.40 L6.54 43.12 L6.96 40.85 L7.50 38.61 L8.15 36.40 L8.92 34.23 L9.80 32.10 L10.80 30.02 L11.89 28.00 L13.10 26.04 L14.40 24.14 L15.81 22.31 L17.30 20.56 L18.89 18.89 L20.56 17.30 L22.31 15.81 L24.14 14.40 L26.04 13.10 L28.00 11.89 L30.02 10.80 L32.10 9.80 L34.23 8.92 L36.40 8.15 L38.61 7.50 L40.85 6.96 L43.12 6.54 L45.40 6.24 L47.70 6.06 L50.00 6.00 L52.30 6.06 L54.60 6.24 L56.88 6.54 L59.15 6.96 L61.39 7.50 L63.60 8.15 L65.77 8.92 L67.90 9.80 L69.98 10.80 L72.00 11.89 L73.96 13.10 L75.86 14.40 L77.69 15.81 L79.44 17.30 L81.11 18.89 L82.70 20.56 L84.19 22.31 L85.60 24.14 L86.90 26.04 L88.11 28.00 L89.20 30.02 L90.20 32.10 L91.08 34.23 L91.85 36.40 L92.50 38.61 L93.04 40.85 L93.46 43.12 L93.76 45.40 L93.94 47.70 L94.00 50.00" fill="none" stroke="#9a7322" stroke-width="4.5" stroke-linecap="round"/></svg>