<svg viewBox="0 0 120 120" xmlns="http://www.w3.org/2000/svg" aria-label="forest of hearts — spiraling branches searching for the light">
  <!-- forest of hearts: one trunk breaks into three spiraling branches, each
       curling toward the light, careful never to touch each other.
       palette: heart-forest.html (ink #1F5D4E, heart #E23830, gold light). -->
  <g fill="none" stroke="#1F5D4E" stroke-linecap="round">
    <path d="M 47.00 112.00 L 47.10 111.35 L 47.21 110.70 L 47.32 110.05 L 47.43 109.40 L 47.55 108.75 L 47.67 108.10 L 47.79 107.45 L 47.91 106.80 L 48.04 106.15 L 48.17 105.50 L 48.30 104.86 L 48.43 104.21 L 48.57 103.56 L 48.70 102.91 L 48.84 102.27 L 48.97 101.62 L 49.11 100.97 L 49.25 100.33 L 49.38 99.68 L 49.52 99.04 L 49.65 98.39 L 49.79 97.75 L 49.92 97.11 L 50.06 96.46 L 50.19 95.82 L 50.32 95.18 L 50.44 94.54 L 50.57 93.90 L 50.69 93.26 L 50.81 92.62 L 50.93 91.99 L 51.04 91.35 L 51.15 90.72 L 51.26 90.08 L 51.36 89.45 L 51.46 88.82 L 51.56 88.18 L 51.65 87.55 L 51.73 86.92 L 51.81 86.30 L 51.89 85.67 L 51.96 85.04 L 52.02 84.42 L 52.08 83.79 L 52.13 83.17 L 52.18 82.55 L 52.22 81.93 L 52.25 81.31 L 52.27 80.69 L 52.29 80.08 L 52.30 79.46 L 52.30 78.85 L 52.29 78.24 L 52.28 77.63 L 52.25 77.02 L 52.22 76.41 L 52.18 75.81 L 52.13 75.20 L 52.07 74.60 L 52.00 74.00" stroke-width="3.4"/>
    <path d="M 52.00 74.00 L 51.60 73.40 L 51.18 72.81 L 50.76 72.22 L 50.33 71.63 L 49.89 71.04 L 49.44 70.46 L 48.99 69.88 L 48.54 69.31 L 48.08 68.74 L 47.61 68.17 L 47.14 67.61 L 46.67 67.05 L 46.20 66.49 L 45.73 65.94 L 45.25 65.39 L 44.78 64.85 L 44.30 64.31 L 43.83 63.77 L 43.36 63.24 L 42.89 62.71 L 42.43 62.19 L 41.97 61.67 L 41.51 61.15 L 41.06 60.64 L 40.62 60.13 L 40.18 59.63 L 39.75 59.13 L 39.33 58.64 L 38.92 58.15 L 38.51 57.66 L 38.12 57.18 L 37.74 56.70 L 37.37 56.23 L 37.01 55.76 L 36.66 55.30 L 36.33 54.84 L 36.01 54.38 L 35.70 53.93 L 35.41 53.49 L 35.14 53.04 L 34.89 52.61 L 34.65 52.18 L 34.43 51.75 L 34.23 51.33 L 34.04 50.91 L 33.88 50.50 L 33.74 50.10 L 33.62 49.69 L 33.52 49.30 L 33.45 48.91 L 33.40 48.52 L 33.37 48.14 L 33.37 47.76 L 33.39 47.39 L 33.44 47.02 L 33.52 46.66 L 33.62 46.31 L 33.75 45.96 L 33.91 45.62 L 34.10 45.28 L 34.10 45.28 L 32.67 45.30 L 31.30 45.17 L 29.99 44.88 L 28.76 44.46 L 27.63 43.91 L 26.61 43.26 L 25.70 42.52 L 24.90 41.71 L 24.23 40.83 L 23.68 39.92 L 23.26 38.98 L 22.96 38.03 L 22.78 37.08 L 22.71 36.14 L 22.75 35.24 L 22.90 34.38 L 23.13 33.56 L 23.44 32.80 L 23.83 32.11 L 24.28 31.49 L 24.79 30.94 L 25.33 30.47 L 25.91 30.08 L 26.51 29.78 L 27.12 29.55 L 27.74 29.39 L 28.34 29.32 L 28.94 29.31 L 29.50 29.37 L 30.04 29.50 L 30.55 29.68 L 31.02 29.91 L 31.44 30.18 L 31.81 30.49 L 32.14 30.83 L 32.41 31.19 L 32.64 31.57 L 32.81 31.96 L 32.93 32.36 L 33.00 32.75 L 33.02 33.14 L 33.00 33.51 L 32.94 33.87 L 32.84 34.21 L 32.71 34.52 L 32.55 34.80 L 32.36 35.06 L 32.15 35.28 L 31.92 35.48 L 31.68 35.64 L 31.43 35.76 L 31.17 35.85 L 30.92 35.91 L 30.67 35.94 L 30.42 35.94 L 30.19 35.92 L 29.96 35.86 L 29.76 35.79 L 29.56 35.69 L 29.39 35.58 L 29.24 35.45 L 29.10 35.30 L 28.99 35.15 L 28.90 34.99 L 28.83 34.83 L 28.78 34.67 L 28.75 34.50 L 28.75 34.34 L 28.76 34.19 L 28.78 34.04 L 28.82 33.90 L 28.88 33.77 L 28.95 33.66 L 29.03 33.55 L 29.12 33.46 L 29.21 33.38 L 29.31 33.32 L 29.42 33.27 L 29.52 33.23 L 29.63 33.20 L 29.73 33.19 L 29.83 33.19 L 29.93 33.21 L 30.02 33.23 L 30.11 33.26 L 30.19 33.30 L 30.26 33.35 L 30.32 33.40 L 30.38 33.46 L 30.42 33.53 L 30.46 33.59 L 30.49 33.66 L 30.51 33.73 L 30.52 33.80 L 30.52 33.86 L 30.52 33.93 L 30.50 33.99 L 30.49 34.04 L 30.46 34.10 L 30.43 34.15 L 30.40 34.19 L 30.36 34.23 L 30.32 34.26 L 30.28 34.29 L 30.24 34.31 L 30.20 34.32 L 30.15 34.33 L 30.11 34.34 L 30.07 34.33 L 30.03 34.33 L 29.99 34.32 L 29.95 34.31 L 29.92 34.29 L 29.89 34.27 L 29.86 34.25 L 29.84 34.22 L 29.82 34.19 L 29.81 34.17 L 29.80 34.14 L 29.79 34.11 L 29.79 34.08 L 29.78 34.06 L 29.79 34.03 L 29.79 34.00 L 29.80 33.98 L 29.81 33.96 L 29.82 33.94 L 29.84 33.92 L 29.85 33.90 L 29.87 33.89 L 29.88 33.88 L 29.90 33.87 L 29.92 33.87 L 29.94 33.86 L 29.96 33.86 L 29.97 33.86 L 29.99 33.86 L 30.01 33.87 L 30.02 33.87 L 30.03 33.88" stroke-width="2.6"/>
    <path d="M 52.00 74.00 L 52.10 73.40 L 52.19 72.80 L 52.27 72.20 L 52.35 71.60 L 52.42 71.00 L 52.48 70.40 L 52.54 69.80 L 52.59 69.21 L 52.64 68.61 L 52.68 68.01 L 52.71 67.41 L 52.74 66.82 L 52.76 66.22 L 52.77 65.63 L 52.78 65.04 L 52.79 64.44 L 52.78 63.85 L 52.78 63.26 L 52.76 62.67 L 52.74 62.08 L 52.72 61.50 L 52.69 60.91 L 52.65 60.33 L 52.61 59.74 L 52.57 59.16 L 52.52 58.58 L 52.46 58.00 L 52.40 57.43 L 52.33 56.85 L 52.26 56.28 L 52.18 55.71 L 52.10 55.14 L 52.01 54.57 L 51.92 54.01 L 51.83 53.45 L 51.73 52.89 L 51.62 52.33 L 51.51 51.77 L 51.40 51.22 L 51.28 50.67 L 51.16 50.12 L 51.03 49.57 L 50.90 49.03 L 50.76 48.49 L 50.62 47.95 L 50.48 47.41 L 50.33 46.88 L 50.18 46.35 L 50.03 45.83 L 49.87 45.30 L 49.70 44.78 L 49.54 44.26 L 49.37 43.75 L 49.19 43.24 L 49.01 42.73 L 48.83 42.23 L 48.65 41.73 L 48.46 41.23 L 48.27 40.74 L 48.07 40.25 L 48.07 40.25 L 48.70 41.03 L 49.38 41.73 L 50.11 42.33 L 50.88 42.84 L 51.67 43.26 L 52.47 43.58 L 53.29 43.81 L 54.09 43.96 L 54.89 44.01 L 55.66 43.99 L 56.40 43.89 L 57.11 43.71 L 57.78 43.48 L 58.40 43.18 L 58.98 42.83 L 59.49 42.44 L 59.95 42.01 L 60.36 41.54 L 60.70 41.05 L 60.98 40.55 L 61.20 40.03 L 61.36 39.51 L 61.47 38.99 L 61.51 38.47 L 61.51 37.97 L 61.45 37.49 L 61.35 37.02 L 61.21 36.59 L 61.03 36.18 L 60.81 35.80 L 60.56 35.46 L 60.29 35.16 L 59.99 34.89 L 59.68 34.66 L 59.36 34.47 L 59.02 34.32 L 58.69 34.21 L 58.35 34.14 L 58.02 34.10 L 57.69 34.09 L 57.38 34.12 L 57.08 34.18 L 56.79 34.27 L 56.53 34.38 L 56.28 34.51 L 56.06 34.67 L 55.85 34.84 L 55.68 35.03 L 55.52 35.23 L 55.40 35.44 L 55.29 35.65 L 55.22 35.87 L 55.16 36.08 L 55.13 36.30 L 55.13 36.51 L 55.14 36.71 L 55.17 36.91 L 55.23 37.09 L 55.29 37.27 L 55.38 37.43 L 55.48 37.58 L 55.59 37.71 L 55.70 37.83 L 55.83 37.93 L 55.96 38.02 L 56.10 38.09 L 56.24 38.14 L 56.38 38.18 L 56.52 38.20 L 56.65 38.21 L 56.79 38.20 L 56.91 38.18 L 57.04 38.15 L 57.15 38.11 L 57.26 38.06 L 57.35 38.00 L 57.44 37.93 L 57.52 37.85 L 57.59 37.77 L 57.64 37.69 L 57.69 37.60 L 57.73 37.51 L 57.75 37.42 L 57.77 37.33 L 57.78 37.24 L 57.78 37.16 L 57.77 37.07 L 57.75 36.99 L 57.72 36.92 L 57.69 36.85 L 57.65 36.79 L 57.61 36.73 L 57.56 36.68 L 57.51 36.63 L 57.45 36.59 L 57.40 36.56 L 57.34 36.54 L 57.28 36.52 L 57.23 36.51 L 57.17 36.50 L 57.11 36.50 L 57.06 36.51 L 57.01 36.52 L 56.96 36.53 L 56.91 36.55 L 56.87 36.58 L 56.83 36.60 L 56.80 36.63 L 56.77 36.67 L 56.74 36.70 L 56.72 36.74 L 56.70 36.77 L 56.69 36.81 L 56.68 36.85 L 56.68 36.88 L 56.68 36.92 L 56.68 36.95 L 56.69 36.99 L 56.70 37.02 L 56.71 37.05 L 56.72 37.08 L 56.74 37.10 L 56.76 37.13 L 56.78 37.15 L 56.80 37.16 L 56.82 37.18 L 56.85 37.19 L 56.87 37.20 L 56.90 37.20 L 56.92 37.21 L 56.94 37.21 L 56.97 37.21 L 56.99 37.20 L 57.01 37.20 L 57.03 37.19 L 57.05 37.18 L 57.06 37.17 L 57.08 37.16 L 57.09 37.14 L 57.10 37.13" stroke-width="2.4"/>
    <path d="M 52.00 74.00 L 52.50 73.60 L 53.00 73.19 L 53.50 72.79 L 54.00 72.37 L 54.50 71.96 L 54.99 71.54 L 55.49 71.12 L 55.98 70.70 L 56.48 70.28 L 56.97 69.85 L 57.46 69.42 L 57.94 68.99 L 58.43 68.56 L 58.91 68.13 L 59.39 67.69 L 59.86 67.25 L 60.33 66.81 L 60.80 66.37 L 61.27 65.93 L 61.73 65.49 L 62.19 65.04 L 62.64 64.60 L 63.09 64.15 L 63.53 63.71 L 63.97 63.26 L 64.41 62.81 L 64.83 62.36 L 65.26 61.91 L 65.68 61.47 L 66.09 61.02 L 66.49 60.57 L 66.89 60.12 L 67.29 59.67 L 67.67 59.23 L 68.05 58.78 L 68.42 58.34 L 68.79 57.89 L 69.15 57.45 L 69.49 57.00 L 69.84 56.56 L 70.17 56.12 L 70.50 55.68 L 70.81 55.24 L 71.12 54.81 L 71.42 54.37 L 71.71 53.94 L 71.99 53.51 L 72.26 53.08 L 72.52 52.66 L 72.77 52.23 L 73.02 51.81 L 73.25 51.39 L 73.47 50.97 L 73.68 50.56 L 73.88 50.15 L 74.06 49.74 L 74.24 49.34 L 74.40 48.94 L 74.56 48.54 L 74.70 48.14 L 74.70 48.14 L 75.36 48.34 L 76.02 48.48 L 76.67 48.55 L 77.31 48.57 L 77.93 48.53 L 78.53 48.43 L 79.11 48.29 L 79.66 48.10 L 80.17 47.87 L 80.65 47.60 L 81.09 47.29 L 81.49 46.96 L 81.86 46.59 L 82.17 46.21 L 82.45 45.81 L 82.69 45.40 L 82.88 44.98 L 83.03 44.56 L 83.13 44.13 L 83.20 43.71 L 83.23 43.29 L 83.22 42.89 L 83.18 42.49 L 83.10 42.11 L 82.99 41.75 L 82.86 41.41 L 82.69 41.09 L 82.51 40.79 L 82.30 40.52 L 82.08 40.27 L 81.84 40.05 L 81.59 39.86 L 81.33 39.70 L 81.06 39.56 L 80.78 39.45 L 80.51 39.37 L 80.24 39.31 L 79.97 39.28 L 79.70 39.27 L 79.44 39.29 L 79.19 39.33 L 78.95 39.39 L 78.73 39.47 L 78.51 39.57 L 78.32 39.68 L 78.13 39.80 L 77.97 39.94 L 77.82 40.09 L 77.68 40.25 L 77.57 40.42 L 77.47 40.59 L 77.39 40.76 L 77.33 40.94 L 77.28 41.12 L 77.26 41.29 L 77.24 41.46 L 77.25 41.63 L 77.27 41.80 L 77.30 41.95 L 77.34 42.10 L 77.40 42.25 L 77.47 42.38 L 77.54 42.50 L 77.63 42.61 L 77.72 42.72 L 77.82 42.81 L 77.93 42.89 L 78.04 42.96 L 78.15 43.01 L 78.26 43.06 L 78.37 43.09 L 78.49 43.12 L 78.60 43.13 L 78.71 43.13 L 78.82 43.12 L 78.92 43.11 L 79.02 43.08 L 79.11 43.05 L 79.20 43.01 L 79.28 42.96 L 79.36 42.91 L 79.43 42.85 L 79.49 42.79 L 79.55 42.73 L 79.59 42.66 L 79.63 42.59 L 79.67 42.51 L 79.69 42.44 L 79.71 42.37 L 79.72 42.29 L 79.73 42.22 L 79.73 42.15 L 79.72 42.08 L 79.71 42.02 L 79.69 41.96 L 79.66 41.90 L 79.64 41.84 L 79.60 41.79 L 79.57 41.75 L 79.53 41.70 L 79.49 41.67 L 79.45 41.63 L 79.40 41.60 L 79.35 41.58 L 79.31 41.56 L 79.26 41.55 L 79.21 41.54 L 79.17 41.53 L 79.12 41.53 L 79.08 41.53 L 79.03 41.54 L 78.99 41.55 L 78.95 41.56 L 78.92 41.58 L 78.88 41.60 L 78.85 41.62 L 78.82 41.65 L 78.80 41.67 L 78.77 41.70 L 78.75 41.73 L 78.74 41.76 L 78.72 41.79 L 78.71 41.82 L 78.70 41.85 L 78.70 41.88 L 78.70 41.91 L 78.70 41.94 L 78.70 41.96 L 78.71 41.99 L 78.71 42.02 L 78.72 42.04 L 78.74 42.07 L 78.75 42.09 L 78.76 42.11 L 78.78 42.12 L 78.80 42.14 L 78.82 42.15 L 78.83 42.16 L 78.85 42.17 L 78.87 42.18" stroke-width="2.2"/>
  </g>
  <g stroke="#c9a84c" stroke-width="1.6" stroke-linecap="round"><line x1="98.5" y1="20.0" x2="101.5" y2="20.0"/><line x1="96.6" y1="24.6" x2="98.7" y2="26.7"/><line x1="92.0" y1="26.5" x2="92.0" y2="29.5"/><line x1="87.4" y1="24.6" x2="85.3" y2="26.7"/><line x1="85.5" y1="20.0" x2="82.5" y2="20.0"/><line x1="87.4" y1="15.4" x2="85.3" y2="13.3"/><line x1="92.0" y1="13.5" x2="92.0" y2="10.5"/><line x1="96.6" y1="15.4" x2="98.7" y2="13.3"/></g>
  <circle cx="92.0" cy="20.0" r="4.2" fill="#c9a84c"/>
  <g fill="#E23830">
    <path transform="translate(30.0,30.8) scale(0.62)" d="M0,1.8 C-1.7,-0.4 -4.2,0.4 -4.2,2.6 C-4.2,4.6 -1.9,6.2 0,7.6 C1.9,6.2 4.2,4.6 4.2,2.6 C4.2,0.4 1.7,-0.4 0,1.8 Z"/>
    <path transform="translate(57.0,34.2) scale(0.55)" d="M0,1.8 C-1.7,-0.4 -4.2,0.4 -4.2,2.6 C-4.2,4.6 -1.9,6.2 0,7.6 C1.9,6.2 4.2,4.6 4.2,2.6 C4.2,0.4 1.7,-0.4 0,1.8 Z"/>
    <path transform="translate(79.0,39.5) scale(0.48)" d="M0,1.8 C-1.7,-0.4 -4.2,0.4 -4.2,2.6 C-4.2,4.6 -1.9,6.2 0,7.6 C1.9,6.2 4.2,4.6 4.2,2.6 C4.2,0.4 1.7,-0.4 0,1.8 Z"/>
  </g>
</svg>