<svg viewBox="0 0 100 100" xmlns="http://www.w3.org/2000/svg" aria-label="recursive.eco"><path d="M 50.60 50.00 L 50.61 50.02 L 50.61 50.04 L 50.61 50.06 L 50.62 50.08 L 50.62 50.10 L 50.62 50.12 L 50.63 50.14 L 50.63 50.16 L 50.63 50.18 L 50.63 50.20 L 50.63 50.23 L 50.63 50.25 L 50.62 50.27 L 50.62 50.29 L 50.62 50.31 L 50.61 50.34 L 50.61 50.36 L 50.60 50.38 L 50.60 50.40 L 50.59 50.43 L 50.58 50.45 L 50.57 50.47 L 50.56 50.50 L 50.55 50.52 L 50.54 50.54 L 50.53 50.56 L 50.51 50.58 L 50.50 50.61 L 50.49 50.63 L 50.47 50.65 L 50.45 50.67 L 50.44 50.69 L 50.42 50.71 L 50.40 50.73 L 50.38 50.75 L 50.36 50.77 L 50.34 50.79 L 50.32 50.80 L 50.30 50.82 L 50.27 50.84 L 50.25 50.85 L 50.22 50.87 L 50.20 50.89 L 50.17 50.90 L 50.14 50.91 L 50.12 50.93 L 50.09 50.94 L 50.06 50.95 L 50.03 50.96 L 50.00 50.97 L 49.97 50.98 L 49.94 50.99 L 49.91 50.99 L 49.87 51.00 L 49.84 51.01 L 49.81 51.01 L 49.77 51.01 L 49.74 51.02 L 49.70 51.02 L 49.67 51.02 L 49.63 51.02 L 49.60 51.01 L 49.56 51.01 L 49.53 51.01 L 49.49 51.00 L 49.45 50.99 L 49.42 50.98 L 49.38 50.97 L 49.34 50.96 L 49.31 50.95 L 49.27 50.94 L 49.24 50.92 L 49.20 50.91 L 49.16 50.89 L 49.13 50.87 L 49.09 50.85 L 49.06 50.83 L 49.02 50.81 L 48.99 50.79 L 48.95 50.76 L 48.92 50.74 L 48.88 50.71 L 48.85 50.68 L 48.82 50.65 L 48.79 50.62 L 48.76 50.58 L 48.73 50.55 L 48.70 50.52 L 48.67 50.48 L 48.64 50.44 L 48.62 50.40 L 48.59 50.36 L 48.57 50.32 L 48.54 50.28 L 48.52 50.23 L 48.50 50.19 L 48.48 50.14 L 48.46 50.10 L 48.44 50.05 L 48.43 50.00 L 48.41 49.95 L 48.40 49.90 L 48.39 49.85 L 48.38 49.80 L 48.37 49.74 L 48.37 49.69 L 48.36 49.63 L 48.36 49.58 L 48.36 49.52 L 48.36 49.47 L 48.36 49.41 L 48.36 49.35 L 48.37 49.29 L 48.37 49.23 L 48.38 49.18 L 48.39 49.12 L 48.41 49.06 L 48.42 49.00 L 48.44 48.94 L 48.46 48.88 L 48.48 48.82 L 48.50 48.76 L 48.53 48.70 L 48.56 48.65 L 48.59 48.59 L 48.62 48.53 L 48.65 48.47 L 48.69 48.42 L 48.73 48.36 L 48.77 48.30 L 48.81 48.25 L 48.85 48.20 L 48.90 48.14 L 48.95 48.09 L 49.00 48.04 L 49.05 47.99 L 49.11 47.94 L 49.17 47.89 L 49.23 47.85 L 49.29 47.80 L 49.35 47.76 L 49.41 47.72 L 49.48 47.68 L 49.55 47.64 L 49.62 47.61 L 49.69 47.57 L 49.77 47.54 L 49.84 47.51 L 49.92 47.48 L 50.00 47.46 L 50.08 47.44 L 50.16 47.41 L 50.25 47.40 L 50.33 47.38 L 50.42 47.37 L 50.50 47.35 L 50.59 47.35 L 50.68 47.34 L 50.77 47.34 L 50.86 47.34 L 50.96 47.34 L 51.05 47.35 L 51.14 47.36 L 51.24 47.37 L 51.33 47.38 L 51.43 47.40 L 51.52 47.42 L 51.62 47.45 L 51.72 47.48 L 51.81 47.51 L 51.91 47.54 L 52.00 47.58 L 52.10 47.62 L 52.19 47.67 L 52.29 47.71 L 52.38 47.77 L 52.47 47.82 L 52.56 47.88 L 52.65 47.94 L 52.74 48.01 L 52.83 48.07 L 52.92 48.15 L 53.01 48.22 L 53.09 48.30 L 53.17 48.38 L 53.25 48.47 L 53.33 48.56 L 53.41 48.65 L 53.48 48.75 L 53.55 48.85 L 53.62 48.95 L 53.69 49.05 L 53.75 49.16 L 53.81 49.27 L 53.87 49.39 L 53.93 49.50 L 53.98 49.62 L 54.03 49.75 L 54.07 49.87 L 54.11 50.00 L 54.15 50.13 L 54.18 50.26 L 54.21 50.40 L 54.24 50.54 L 54.26 50.68 L 54.28 50.82 L 54.29 50.96 L 54.30 51.10 L 54.31 51.25 L 54.31 51.40 L 54.30 51.55 L 54.29 51.70 L 54.28 51.85 L 54.26 52.00 L 54.23 52.16 L 54.20 52.31 L 54.17 52.47 L 54.13 52.62 L 54.08 52.78 L 54.03 52.93 L 53.98 53.09 L 53.92 53.24 L 53.85 53.39 L 53.78 53.55 L 53.70 53.70 L 53.62 53.85 L 53.53 54.00 L 53.43 54.15 L 53.33 54.30 L 53.23 54.44 L 53.12 54.58 L 53.00 54.72 L 52.88 54.86 L 52.75 55.00 L 52.61 55.13 L 52.48 55.26 L 52.33 55.39 L 52.18 55.51 L 52.03 55.63 L 51.87 55.75 L 51.70 55.86 L 51.53 55.97 L 51.36 56.07 L 51.18 56.17 L 50.99 56.26 L 50.80 56.35 L 50.61 56.44 L 50.41 56.51 L 50.21 56.59 L 50.00 56.65 L 49.79 56.72 L 49.57 56.77 L 49.36 56.82 L 49.13 56.86 L 48.91 56.90 L 48.68 56.92 L 48.45 56.95 L 48.21 56.96 L 47.98 56.97 L 47.74 56.97 L 47.49 56.96 L 47.25 56.94 L 47.01 56.92 L 46.76 56.89 L 46.51 56.85 L 46.26 56.80 L 46.01 56.75 L 45.76 56.68 L 45.51 56.61 L 45.26 56.53 L 45.01 56.44 L 44.76 56.34 L 44.51 56.23 L 44.26 56.11 L 44.01 55.99 L 43.77 55.85 L 43.53 55.71 L 43.29 55.55 L 43.05 55.39 L 42.81 55.22 L 42.58 55.04 L 42.36 54.85 L 42.13 54.65 L 41.91 54.45 L 41.70 54.23 L 41.49 54.01 L 41.28 53.77 L 41.08 53.53 L 40.89 53.28 L 40.70 53.02 L 40.52 52.75 L 40.34 52.48 L 40.18 52.20 L 40.02 51.90 L 39.87 51.61 L 39.72 51.30 L 39.59 50.98 L 39.46 50.66 L 39.34 50.33 L 39.23 50.00 L 39.13 49.66 L 39.05 49.31 L 38.97 48.96 L 38.90 48.60 L 38.84 48.23 L 38.80 47.86 L 38.76 47.49 L 38.74 47.11 L 38.73 46.72 L 38.73 46.34 L 38.74 45.95 L 38.76 45.55 L 38.80 45.15 L 38.85 44.75 L 38.92 44.35 L 38.99 43.95 L 39.09 43.55 L 39.19 43.14 L 39.31 42.73 L 39.44 42.33 L 39.59 41.92 L 39.75 41.52 L 39.92 41.12 L 40.11 40.71 L 40.32 40.32 L 40.53 39.92 L 40.77 39.53 L 41.01 39.14 L 41.28 38.75 L 41.55 38.37 L 41.84 38.00 L 42.15 37.63 L 42.47 37.27 L 42.81 36.91 L 43.15 36.56 L 43.52 36.22 L 43.90 35.89 L 44.29 35.57 L 44.69 35.26 L 45.11 34.95 L 45.54 34.66 L 45.99 34.38 L 46.45 34.11 L 46.92 33.85 L 47.40 33.60 L 47.90 33.37 L 48.41 33.15 L 48.93 32.95 L 49.46 32.75 L 50.00 32.58 L 50.55 32.42 L 51.12 32.28 L 51.69 32.15 L 52.27 32.04 L 52.86 31.95 L 53.46 31.87 L 54.07 31.81 L 54.68 31.78 L 55.30 31.76 L 55.93 31.76 L 56.56 31.78 L 57.20 31.82 L 57.84 31.88 L 58.49 31.96 L 59.14 32.07 L 59.79 32.19 L 60.44 32.34 L 61.10 32.51 L 61.76 32.70 L 62.41 32.91 L 63.07 33.15 L 63.72 33.41 L 64.37 33.69 L 65.02 34.00 L 65.67 34.33 L 66.31 34.68 L 66.95 35.06 L 67.57 35.46 L 68.20 35.89 L 68.81 36.33 L 69.42 36.80 L 70.01 37.30 L 70.60 37.82 L 71.18 38.36 L 71.74 38.92 L 72.29 39.51 L 72.83 40.12 L 73.35 40.76 L 73.86 41.41 L 74.35 42.09 L 74.82 42.79 L 75.28 43.51 L 75.72 44.25 L 76.13 45.01 L 76.53 45.80 L 76.91 46.60 L 77.26 47.42 L 77.60 48.26 L 77.90 49.12 L 78.19 50.00 L 78.45 50.89 L 78.68 51.80 L 78.88 52.73 L 79.06 53.67 L 79.21 54.63 L 79.33 55.60 L 79.43 56.58 L 79.49 57.57 L 79.52 58.58 L 79.52 59.59 L 79.48 60.61 L 79.42 61.65 L 79.32 62.69 L 79.18 63.73 L 79.02 64.78 L 78.81 65.84 L 78.57 66.90 L 78.30 67.96 L 77.99 69.02 L 77.64 70.08 L 77.26 71.15 L 76.84 72.20 L 76.38 73.26 L 75.89 74.31 L 75.35 75.35 L 74.78 76.39 L 74.17 77.42 L 73.52 78.44 L 72.84 79.44 L 72.11 80.44 L 71.35 81.42 L 70.55 82.38 L 69.71 83.33 L 68.84 84.26 L 67.92 85.17 L 66.97 86.07 L 65.98 86.93 L 64.96 87.78 L 63.90 88.60 L 62.80 89.40 L 61.67 90.16 L 60.50 90.90 L 59.30 91.61 L 58.07 92.29 L 56.80 92.93 L 55.50 93.54 L 54.14 93.80 L 52.76 93.91 L 51.38 93.98 L 50.00 94.00 L 48.62 93.98 L 47.24 93.91 L 45.86 93.80 L 44.49 93.65 L 43.12 93.46 L 41.76 93.22 L 40.40 92.94 L 39.06 92.62 L 37.72 92.25 L 36.40 91.85 L 35.10 91.40 L 33.80 90.91 L 32.53 90.38 L 31.27 89.81 L 30.02 89.20 L 28.80 88.56 L 27.60 87.87 L 26.42 87.15 L 25.27 86.39 L 24.14 85.60 L 23.03 84.77 L 21.95 83.90 L 20.90 83.00 L 19.88 82.07 L 18.89 81.11 L 17.93 80.12 L 17.00 79.10 L 16.10 78.05 L 15.23 76.97 L 14.40 75.86 L 13.61 74.73 L 12.85 73.58 L 12.13 72.40 L 11.44 71.20 L 10.80 69.98 L 10.19 68.73 L 9.62 67.47 L 9.09 66.20 L 8.60 64.90 L 8.15 63.60 L 7.75 62.28 L 7.38 60.94 L 7.06 59.60 L 6.78 58.24 L 6.54 56.88 L 6.35 55.51 L 6.20 54.14 L 6.09 52.76 L 6.02 51.38 L 6.00 50.00 L 6.02 48.62 L 6.09 47.24 L 6.20 45.86 L 6.35 44.49 L 6.54 43.12 L 6.78 41.76 L 7.06 40.40 L 7.38 39.06 L 7.75 37.72 L 8.15 36.40 L 8.60 35.10 L 9.09 33.80 L 9.62 32.53 L 10.19 31.27 L 10.80 30.02 L 11.44 28.80 L 12.13 27.60 L 12.85 26.42 L 13.61 25.27 L 14.40 24.14 L 15.23 23.03 L 16.10 21.95 L 17.00 20.90 L 17.93 19.88 L 18.89 18.89 L 19.88 17.93 L 20.90 17.00 L 21.95 16.10 L 23.03 15.23 L 24.14 14.40 L 25.27 13.61 L 26.42 12.85 L 27.60 12.13 L 28.80 11.44 L 30.02 10.80 L 31.27 10.19 L 32.53 9.62 L 33.80 9.09 L 35.10 8.60 L 36.40 8.15 L 37.72 7.75 L 39.06 7.38 L 40.40 7.06 L 41.76 6.78 L 43.12 6.54 L 44.49 6.35 L 45.86 6.20 L 47.24 6.09 L 48.62 6.02 L 50.00 6.00 L 51.38 6.02 L 52.76 6.09 L 54.14 6.20 L 55.51 6.35 L 56.88 6.54 L 58.24 6.78 L 59.60 7.06 L 60.94 7.38 L 62.28 7.75 L 63.60 8.15 L 64.90 8.60 L 66.20 9.09 L 67.47 9.62 L 68.73 10.19 L 69.98 10.80 L 71.20 11.44 L 72.40 12.13 L 73.58 12.85 L 74.73 13.61 L 75.86 14.40 L 76.97 15.23 L 78.05 16.10 L 79.10 17.00 L 80.12 17.93 L 81.11 18.89 L 82.07 19.88 L 83.00 20.90 L 83.90 21.95 L 84.77 23.03 L 85.60 24.14 L 86.39 25.27 L 87.15 26.42 L 87.87 27.60 L 88.56 28.80 L 89.20 30.02 L 89.81 31.27 L 90.38 32.53 L 90.91 33.80 L 91.40 35.10 L 91.85 36.40 L 92.25 37.72 L 92.62 39.06 L 92.94 40.40 L 93.22 41.76 L 93.46 43.12 L 93.65 44.49 L 93.80 45.86 L 93.91 47.24 L 93.98 48.62 L 94.00 50.00 L 93.98 51.38 L 93.91 52.76 L 93.80 54.14 L 93.65 55.51 L 93.46 56.88 L 93.22 58.24 L 92.94 59.60 L 92.62 60.94 L 92.25 62.28 L 91.85 63.60 L 91.40 64.90 L 90.91 66.20 L 90.38 67.47 L 89.81 68.73 L 89.20 69.98 L 88.56 71.20 L 87.87 72.40 L 87.15 73.58 L 86.39 74.73 L 85.60 75.86 L 84.77 76.97 L 83.90 78.05 L 83.00 79.10 L 82.07 80.12 L 81.11 81.11 L 80.12 82.07 L 79.10 83.00 L 78.05 83.90 L 76.97 84.77 L 75.86 85.60 L 74.73 86.39 L 73.58 87.15 L 72.40 87.87 L 71.20 88.56 L 69.98 89.20 L 68.73 89.81 L 67.47 90.38 L 66.20 90.91 L 64.90 91.40 L 63.60 91.85 L 62.28 92.25 L 60.94 92.62 L 59.60 92.94 L 58.24 93.22 L 56.88 93.46 L 55.51 93.65 L 54.14 93.80 L 52.76 93.91 L 51.38 93.98 L 50.00 94.00 L 48.62 93.98 L 47.24 93.91 L 45.86 93.80 L 44.49 93.65 L 43.12 93.46 L 41.76 93.22 L 40.40 92.94 L 39.06 92.62 L 37.72 92.25 L 36.40 91.85 L 35.10 91.40 L 33.80 90.91 L 32.53 90.38 L 31.27 89.81 L 30.02 89.20 L 28.80 88.56 L 27.60 87.87 L 26.42 87.15 L 25.27 86.39 L 24.14 85.60 L 23.03 84.77 L 21.95 83.90 L 20.90 83.00 L 19.88 82.07 L 18.89 81.11 L 17.93 80.12 L 17.00 79.10 L 16.10 78.05 L 15.23 76.97 L 14.40 75.86 L 13.61 74.73 L 12.85 73.58 L 12.13 72.40 L 11.44 71.20 L 10.80 69.98 L 10.19 68.73 L 9.62 67.47 L 9.09 66.20 L 8.60 64.90 L 8.15 63.60 L 7.75 62.28 L 7.38 60.94 L 7.06 59.60 L 6.78 58.24 L 6.54 56.88 L 6.35 55.51 L 6.20 54.14 L 6.09 52.76 L 6.02 51.38 L 6.00 50.00 L 6.02 48.62 L 6.09 47.24 L 6.20 45.86 L 6.35 44.49 L 6.54 43.12 L 6.78 41.76 L 7.06 40.40 L 7.38 39.06 L 7.75 37.72 L 8.15 36.40 L 8.60 35.10 L 9.09 33.80 L 9.62 32.53 L 10.19 31.27 L 10.80 30.02 L 11.44 28.80 L 12.13 27.60 L 12.85 26.42 L 13.61 25.27 L 14.40 24.14 L 15.23 23.03 L 16.10 21.95 L 17.00 20.90 L 17.93 19.88 L 18.89 18.89 L 19.88 17.93 L 20.90 17.00 L 21.95 16.10 L 23.03 15.23 L 24.14 14.40 L 25.27 13.61 L 26.42 12.85 L 27.60 12.13 L 28.80 11.44 L 30.02 10.80 L 31.27 10.19 L 32.53 9.62 L 33.80 9.09 L 35.10 8.60 L 36.40 8.15 L 37.72 7.75 L 39.06 7.38 L 40.40 7.06 L 41.76 6.78 L 43.12 6.54 L 44.49 6.35 L 45.86 6.20 L 47.24 6.09 L 48.62 6.02 L 50.00 6.00 L 51.38 6.02 L 52.76 6.09 L 54.14 6.20 L 55.51 6.35 L 56.88 6.54 L 58.24 6.78 L 59.60 7.06 L 60.94 7.38 L 62.28 7.75 L 63.60 8.15 L 64.90 8.60 L 66.20 9.09 L 67.47 9.62 L 68.73 10.19 L 69.98 10.80 L 71.20 11.44 L 72.40 12.13 L 73.58 12.85 L 74.73 13.61 L 75.86 14.40 L 76.97 15.23 L 78.05 16.10 L 79.10 17.00 L 80.12 17.93 L 81.11 18.89 L 82.07 19.88 L 83.00 20.90 L 83.90 21.95 L 84.77 23.03 L 85.60 24.14 L 86.39 25.27 L 87.15 26.42 L 87.87 27.60 L 88.56 28.80 L 89.20 30.02 L 89.81 31.27 L 90.38 32.53 L 90.91 33.80 L 91.40 35.10 L 91.85 36.40 L 92.25 37.72 L 92.62 39.06 L 92.94 40.40 L 93.22 41.76 L 93.46 43.12 L 93.65 44.49 L 93.80 45.86 L 93.91 47.24 L 93.98 48.62 L 94.00 50.00 L 93.98 51.38 L 93.91 52.76 L 93.80 54.14 L 93.65 55.51 L 93.46 56.88 L 93.22 58.24 L 92.94 59.60 L 92.62 60.94 L 92.25 62.28 L 91.85 63.60 L 91.40 64.90 L 90.91 66.20 L 90.38 67.47 L 89.81 68.73 L 89.20 69.98 L 88.56 71.20 L 87.87 72.40 L 87.15 73.58 L 86.39 74.73 L 85.60 75.86 L 84.77 76.97 L 83.90 78.05 L 83.00 79.10 L 82.07 80.12 L 81.11 81.11 L 80.12 82.07 L 79.10 83.00 L 78.05 83.90 L 76.97 84.77 L 75.86 85.60 L 74.73 86.39 L 73.58 87.15 L 72.40 87.87 L 71.20 88.56 L 69.98 89.20 L 68.73 89.81 L 67.47 90.38 L 66.20 90.91 L 64.90 91.40 L 63.60 91.85 L 62.28 92.25 L 60.94 92.62 L 59.60 92.94 L 58.24 93.22 L 56.88 93.46 L 55.51 93.65 L 54.14 93.80 L 52.76 93.91 L 51.38 93.98 L 50.00 94.00 L 48.62 93.98 L 47.24 93.91 L 45.86 93.80 L 44.49 93.65 L 43.12 93.46 L 41.76 93.22 L 40.40 92.94 L 39.06 92.62 L 37.72 92.25 L 36.40 91.85 L 35.10 91.40 L 33.80 90.91 L 32.53 90.38 L 31.27 89.81 L 30.02 89.20 L 28.80 88.56 L 27.60 87.87 L 26.42 87.15 L 25.27 86.39 L 24.14 85.60 L 23.03 84.77 L 21.95 83.90 L 20.90 83.00 L 19.88 82.07 L 18.89 81.11 L 17.93 80.12 L 17.00 79.10 L 16.10 78.05 L 15.23 76.97 L 14.40 75.86 L 13.61 74.73 L 12.85 73.58 L 12.13 72.40 L 11.44 71.20 L 10.80 69.98 L 10.19 68.73 L 9.62 67.47 L 9.09 66.20 L 8.60 64.90 L 8.15 63.60 L 7.75 62.28 L 7.38 60.94 L 7.06 59.60 L 6.78 58.24 L 6.54 56.88 L 6.35 55.51 L 6.20 54.14 L 6.09 52.76 L 6.02 51.38 L 6.00 50.00 L 6.02 48.62 L 6.09 47.24 L 6.20 45.86 L 6.35 44.49 L 6.54 43.12 L 6.78 41.76 L 7.06 40.40 L 7.38 39.06 L 7.75 37.72 L 8.15 36.40 L 8.60 35.10 L 9.09 33.80 L 9.62 32.53 L 10.19 31.27 L 10.80 30.02 L 11.44 28.80 L 12.13 27.60 L 12.85 26.42 L 13.61 25.27 L 14.40 24.14 L 15.23 23.03 L 16.10 21.95 L 17.00 20.90 L 17.93 19.88 L 18.89 18.89 L 19.88 17.93 L 20.90 17.00 L 21.95 16.10 L 23.03 15.23 L 24.14 14.40 L 25.27 13.61 L 26.42 12.85 L 27.60 12.13 L 28.80 11.44 L 30.02 10.80 L 31.27 10.19 L 32.53 9.62 L 33.80 9.09 L 35.10 8.60 L 36.40 8.15 L 37.72 7.75 L 39.06 7.38 L 40.40 7.06 L 41.76 6.78 L 43.12 6.54 L 44.49 6.35 L 45.86 6.20 L 47.24 6.09 L 48.62 6.02 L 50.00 6.00 L 51.38 6.02 L 52.76 6.09 L 54.14 6.20 L 55.51 6.35 L 56.88 6.54 L 58.24 6.78 L 59.60 7.06 L 60.94 7.38 L 62.28 7.75 L 63.60 8.15 L 64.90 8.60 L 66.20 9.09 L 67.47 9.62 L 68.73 10.19 L 69.98 10.80 L 71.20 11.44 L 72.40 12.13 L 73.58 12.85 L 74.73 13.61 L 75.86 14.40 L 76.97 15.23 L 78.05 16.10 L 79.10 17.00 L 80.12 17.93 L 81.11 18.89 L 82.07 19.88 L 83.00 20.90 L 83.90 21.95 L 84.77 23.03 L 85.60 24.14 L 86.39 25.27 L 87.15 26.42 L 87.87 27.60 L 88.56 28.80 L 89.20 30.02 L 89.81 31.27 L 90.38 32.53 L 90.91 33.80 L 91.40 35.10 L 91.85 36.40 L 92.25 37.72 L 92.62 39.06 L 92.94 40.40 L 93.22 41.76 L 93.46 43.12 L 93.65 44.49 L 93.80 45.86 L 93.91 47.24 L 93.98 48.62 L 94.00 50.00 L 93.98 51.38 L 93.91 52.76 L 93.80 54.14 L 93.65 55.51 L 93.46 56.88 L 93.22 58.24 L 92.94 59.60 L 92.62 60.94 L 92.25 62.28 L 91.85 63.60 L 91.40 64.90 L 90.91 66.20 L 90.38 67.47 L 89.81 68.73 L 89.20 69.98 L 88.56 71.20 L 87.87 72.40 L 87.15 73.58 L 86.39 74.73 L 85.60 75.86 L 84.77 76.97 L 83.90 78.05 L 83.00 79.10 L 82.07 80.12 L 81.11 81.11 L 80.12 82.07 L 79.10 83.00 L 78.05 83.90 L 76.97 84.77 L 75.86 85.60 L 74.73 86.39 L 73.58 87.15 L 72.40 87.87 L 71.20 88.56 L 69.98 89.20 L 68.73 89.81 L 67.47 90.38 L 66.20 90.91 L 64.90 91.40 L 63.60 91.85 L 62.28 92.25 L 60.94 92.62 L 59.60 92.94 L 58.24 93.22 L 56.88 93.46 L 55.51 93.65 L 54.14 93.80 L 52.76 93.91 L 51.38 93.98 L 50.00 94.00 L 48.62 93.98 L 47.24 93.91 L 45.86 93.80 L 44.49 93.65 L 43.12 93.46 L 41.76 93.22 L 40.40 92.94 L 39.06 92.62 L 37.72 92.25 L 36.40 91.85 L 35.10 91.40 L 33.80 90.91 L 32.53 90.38 L 31.27 89.81 L 30.02 89.20 L 28.80 88.56 L 27.60 87.87 L 26.42 87.15 L 25.27 86.39 L 24.14 85.60 L 23.03 84.77 L 21.95 83.90 L 20.90 83.00 L 19.88 82.07 L 18.89 81.11 L 17.93 80.12 L 17.00 79.10 L 16.10 78.05 L 15.23 76.97 L 14.40 75.86 L 13.61 74.73 L 12.85 73.58 L 12.13 72.40 L 11.44 71.20 L 10.80 69.98 L 10.19 68.73 L 9.62 67.47 L 9.09 66.20 L 8.60 64.90 L 8.15 63.60 L 7.75 62.28 L 7.38 60.94 L 7.06 59.60 L 6.78 58.24 L 6.54 56.88 L 6.35 55.51 L 6.20 54.14 L 6.09 52.76 L 6.02 51.38 L 6.00 50.00 L 6.02 48.62 L 6.09 47.24 L 6.20 45.86 L 6.35 44.49 L 6.54 43.12 L 6.78 41.76 L 7.06 40.40 L 7.38 39.06 L 7.75 37.72 L 8.15 36.40 L 8.60 35.10 L 9.09 33.80 L 9.62 32.53 L 10.19 31.27 L 10.80 30.02 L 11.44 28.80 L 12.13 27.60 L 12.85 26.42 L 13.61 25.27 L 14.40 24.14 L 15.23 23.03 L 16.10 21.95 L 17.00 20.90 L 17.93 19.88 L 18.89 18.89 L 19.88 17.93 L 20.90 17.00 L 21.95 16.10 L 23.03 15.23 L 24.14 14.40 L 25.27 13.61 L 26.42 12.85 L 27.60 12.13 L 28.80 11.44 L 30.02 10.80 L 31.27 10.19 L 32.53 9.62 L 33.80 9.09 L 35.10 8.60 L 36.40 8.15 L 37.72 7.75 L 39.06 7.38 L 40.40 7.06 L 41.76 6.78 L 43.12 6.54 L 44.49 6.35 L 45.86 6.20 L 47.24 6.09 L 48.62 6.02 L 50.00 6.00 L 51.38 6.02 L 52.76 6.09 L 54.14 6.20 L 55.51 6.35 L 56.88 6.54 L 58.24 6.78 L 59.60 7.06 L 60.94 7.38 L 62.28 7.75 L 63.60 8.15 L 64.90 8.60 L 66.20 9.09 L 67.47 9.62 L 68.73 10.19 L 69.98 10.80 L 71.20 11.44 L 72.40 12.13 L 73.58 12.85 L 74.73 13.61 L 75.86 14.40 L 76.97 15.23 L 78.05 16.10 L 79.10 17.00 L 80.12 17.93 L 81.11 18.89 L 82.07 19.88 L 83.00 20.90 L 83.90 21.95 L 84.77 23.03 L 85.60 24.14 L 86.39 25.27 L 87.15 26.42 L 87.87 27.60 L 88.56 28.80 L 89.20 30.02 L 89.81 31.27 L 90.38 32.53 L 90.91 33.80 L 91.40 35.10 L 91.85 36.40 L 92.25 37.72 L 92.62 39.06 L 92.94 40.40 L 93.22 41.76 L 93.46 43.12 L 93.65 44.49 L 93.80 45.86 L 93.91 47.24 L 93.98 48.62 L 94.00 50.00" fill="none" stroke="#9333ea" stroke-width="2.1" stroke-linecap="round"/></svg>