<svg viewBox="0 0 100 100" xmlns="http://www.w3.org/2000/svg" aria-label="recursive.eco — found by making (v2 candidate)">
<style>line{opacity:.85;animation:rt-shimmer 4.5s ease-in-out infinite}@keyframes rt-shimmer{0%,100%{opacity:.4}50%{opacity:1}}@media(prefers-reduced-motion:reduce){line{animation:none;opacity:.85}}</style>
<line x1="50.7" y1="50.0" x2="50.7" y2="50.1" stroke="#c9a8f0" stroke-width="0.7" stroke-linecap="round" style="animation-delay:0.0s"/>
<line x1="50.7" y1="50.2" x2="50.7" y2="50.3" stroke="#c8a7f0" stroke-width="0.71" stroke-linecap="round" style="animation-delay:0.25s"/>
<line x1="50.7" y1="50.4" x2="50.7" y2="50.5" stroke="#c8a6f0" stroke-width="0.72" stroke-linecap="round" style="animation-delay:0.5s"/>
<line x1="50.6" y1="50.7" x2="50.6" y2="50.7" stroke="#c7a5f0" stroke-width="0.74" stroke-linecap="round" style="animation-delay:0.75s"/>
<line x1="50.5" y1="50.9" x2="50.4" y2="50.9" stroke="#c6a4ef" stroke-width="0.75" stroke-linecap="round" style="animation-delay:1.0s"/>
<line x1="50.2" y1="51.0" x2="50.1" y2="51.1" stroke="#c6a3ef" stroke-width="0.76" stroke-linecap="round" style="animation-delay:1.25s"/>
<line x1="49.9" y1="51.2" x2="49.8" y2="51.2" stroke="#c5a2ef" stroke-width="0.77" stroke-linecap="round" style="animation-delay:1.5s"/>
<line x1="49.6" y1="51.2" x2="49.5" y2="51.2" stroke="#c4a2ef" stroke-width="0.79" stroke-linecap="round" style="animation-delay:1.75s"/>
<line x1="49.2" y1="51.1" x2="49.1" y2="51.1" stroke="#c4a1ef" stroke-width="0.8" stroke-linecap="round" style="animation-delay:2.0s"/>
<line x1="48.9" y1="50.9" x2="48.8" y2="50.9" stroke="#c3a0ef" stroke-width="0.81" stroke-linecap="round" style="animation-delay:2.25s"/>
<line x1="48.5" y1="50.7" x2="48.4" y2="50.5" stroke="#c29fee" stroke-width="0.82" stroke-linecap="round" style="animation-delay:2.5s"/>
<line x1="48.3" y1="50.3" x2="48.2" y2="50.1" stroke="#c29eee" stroke-width="0.83" stroke-linecap="round" style="animation-delay:2.75s"/>
<line x1="48.1" y1="49.8" x2="48.1" y2="49.6" stroke="#c19dee" stroke-width="0.85" stroke-linecap="round" style="animation-delay:0.0s"/>
<line x1="48.1" y1="49.2" x2="48.1" y2="49.0" stroke="#c09cee" stroke-width="0.86" stroke-linecap="round" style="animation-delay:0.25s"/>
<line x1="48.2" y1="48.6" x2="48.3" y2="48.4" stroke="#c09bee" stroke-width="0.87" stroke-linecap="round" style="animation-delay:0.5s"/>
<line x1="48.6" y1="48.0" x2="48.7" y2="47.9" stroke="#bf9aee" stroke-width="0.88" stroke-linecap="round" style="animation-delay:0.75s"/>
<line x1="49.1" y1="47.5" x2="49.3" y2="47.4" stroke="#be99ed" stroke-width="0.9" stroke-linecap="round" style="animation-delay:1.0s"/>
<line x1="49.8" y1="47.1" x2="50.0" y2="47.0" stroke="#be98ed" stroke-width="0.91" stroke-linecap="round" style="animation-delay:1.25s"/>
<line x1="50.6" y1="46.9" x2="50.9" y2="46.9" stroke="#bd97ed" stroke-width="0.92" stroke-linecap="round" style="animation-delay:1.5s"/>
<line x1="51.5" y1="46.9" x2="51.8" y2="47.0" stroke="#bc96ed" stroke-width="0.93" stroke-linecap="round" style="animation-delay:1.75s"/>
<line x1="52.5" y1="47.2" x2="52.8" y2="47.4" stroke="#bc96ed" stroke-width="0.95" stroke-linecap="round" style="animation-delay:2.0s"/>
<line x1="53.4" y1="47.8" x2="53.7" y2="48.1" stroke="#bb95ed" stroke-width="0.96" stroke-linecap="round" style="animation-delay:2.25s"/>
<line x1="54.2" y1="48.7" x2="54.4" y2="49.1" stroke="#ba94ec" stroke-width="0.97" stroke-linecap="round" style="animation-delay:2.5s"/>
<line x1="54.8" y1="49.9" x2="54.9" y2="50.3" stroke="#ba93ec" stroke-width="0.98" stroke-linecap="round" style="animation-delay:2.75s"/>
<line x1="55.0" y1="51.3" x2="55.0" y2="51.7" stroke="#b992ec" stroke-width="0.99" stroke-linecap="round" style="animation-delay:0.0s"/>
<line x1="54.9" y1="52.8" x2="54.7" y2="53.3" stroke="#b891ec" stroke-width="1.01" stroke-linecap="round" style="animation-delay:0.25s"/>
<line x1="54.3" y1="54.4" x2="54.0" y2="54.8" stroke="#b890ec" stroke-width="1.02" stroke-linecap="round" style="animation-delay:0.5s"/>
<line x1="53.2" y1="55.8" x2="52.8" y2="56.2" stroke="#b78fec" stroke-width="1.03" stroke-linecap="round" style="animation-delay:0.75s"/>
<line x1="51.7" y1="57.0" x2="51.1" y2="57.3" stroke="#b68eeb" stroke-width="1.04" stroke-linecap="round" style="animation-delay:1.0s"/>
<line x1="49.7" y1="57.9" x2="49.0" y2="58.0" stroke="#b68deb" stroke-width="1.06" stroke-linecap="round" style="animation-delay:1.25s"/>
<line x1="47.4" y1="58.1" x2="46.6" y2="58.1" stroke="#b58ceb" stroke-width="1.07" stroke-linecap="round" style="animation-delay:1.5s"/>
<line x1="44.9" y1="57.7" x2="44.1" y2="57.5" stroke="#b48beb" stroke-width="1.08" stroke-linecap="round" style="animation-delay:1.75s"/>
<line x1="42.4" y1="56.6" x2="41.6" y2="56.1" stroke="#b48aeb" stroke-width="1.09" stroke-linecap="round" style="animation-delay:2.0s"/>
<line x1="40.1" y1="54.7" x2="39.4" y2="53.9" stroke="#b38aeb" stroke-width="1.1" stroke-linecap="round" style="animation-delay:2.25s"/>
<line x1="38.2" y1="52.0" x2="37.8" y2="51.0" stroke="#b289ea" stroke-width="1.12" stroke-linecap="round" style="animation-delay:2.5s"/>
<line x1="37.1" y1="48.6" x2="36.9" y2="47.5" stroke="#b288ea" stroke-width="1.13" stroke-linecap="round" style="animation-delay:2.75s"/>
<line x1="36.9" y1="44.8" x2="37.0" y2="43.6" stroke="#b187ea" stroke-width="1.14" stroke-linecap="round" style="animation-delay:0.0s"/>
<line x1="37.8" y1="40.7" x2="38.3" y2="39.5" stroke="#b086ea" stroke-width="1.15" stroke-linecap="round" style="animation-delay:0.25s"/>
<line x1="39.9" y1="36.7" x2="40.8" y2="35.6" stroke="#b085ea" stroke-width="1.17" stroke-linecap="round" style="animation-delay:0.5s"/>
<line x1="43.3" y1="33.2" x2="44.6" y2="32.2" stroke="#af84ea" stroke-width="1.18" stroke-linecap="round" style="animation-delay:0.75s"/>
<line x1="47.9" y1="30.4" x2="49.6" y2="29.8" stroke="#ae83e9" stroke-width="1.19" stroke-linecap="round" style="animation-delay:1.0s"/>
<line x1="53.6" y1="28.9" x2="55.5" y2="28.7" stroke="#ae82e9" stroke-width="1.2" stroke-linecap="round" style="animation-delay:1.25s"/>
<line x1="59.9" y1="29.0" x2="61.9" y2="29.3" stroke="#ad81e9" stroke-width="1.22" stroke-linecap="round" style="animation-delay:1.5s"/>
<line x1="66.5" y1="30.9" x2="68.5" y2="31.9" stroke="#ac80e9" stroke-width="1.23" stroke-linecap="round" style="animation-delay:1.75s"/>
<line x1="72.9" y1="34.8" x2="74.7" y2="36.4" stroke="#ac7fe9" stroke-width="1.24" stroke-linecap="round" style="animation-delay:2.0s"/>
<line x1="78.4" y1="40.8" x2="79.8" y2="43.0" stroke="#ab7ee9" stroke-width="1.25" stroke-linecap="round" style="animation-delay:2.25s"/>
<line x1="82.4" y1="48.6" x2="83.3" y2="51.4" stroke="#aa7de8" stroke-width="1.26" stroke-linecap="round" style="animation-delay:2.5s"/>
<line x1="84.4" y1="58.1" x2="84.4" y2="61.2" stroke="#aa7de8" stroke-width="1.28" stroke-linecap="round" style="animation-delay:2.75s"/>
<line x1="83.6" y1="68.5" x2="82.8" y2="71.8" stroke="#a97ce8" stroke-width="1.29" stroke-linecap="round" style="animation-delay:0.0s"/>
<line x1="79.8" y1="79.2" x2="78.0" y2="82.4" stroke="#a87be8" stroke-width="1.3" stroke-linecap="round" style="animation-delay:0.25s"/>
<line x1="72.0" y1="88.1" x2="68.7" y2="89.8" stroke="#a87ae8" stroke-width="1.31" stroke-linecap="round" style="animation-delay:0.5s"/>
<line x1="60.9" y1="92.6" x2="57.3" y2="93.4" stroke="#a779e8" stroke-width="1.33" stroke-linecap="round" style="animation-delay:0.75s"/>
<line x1="49.1" y1="94.0" x2="45.4" y2="93.8" stroke="#a678e7" stroke-width="1.34" stroke-linecap="round" style="animation-delay:1.0s"/>
<line x1="37.3" y1="92.1" x2="33.8" y2="90.9" stroke="#a677e7" stroke-width="1.35" stroke-linecap="round" style="animation-delay:1.25s"/>
<line x1="26.4" y1="87.2" x2="23.4" y2="85.0" stroke="#a576e7" stroke-width="1.36" stroke-linecap="round" style="animation-delay:1.5s"/>
<line x1="17.3" y1="79.4" x2="15.0" y2="76.6" stroke="#a475e7" stroke-width="1.37" stroke-linecap="round" style="animation-delay:1.75s"/>
<line x1="10.6" y1="69.6" x2="9.1" y2="66.2" stroke="#a474e7" stroke-width="1.39" stroke-linecap="round" style="animation-delay:2.0s"/>
<line x1="6.8" y1="58.2" x2="6.2" y2="54.6" stroke="#a373e7" stroke-width="1.4" stroke-linecap="round" style="animation-delay:2.25s"/>
<line x1="6.2" y1="46.3" x2="6.6" y2="42.7" stroke="#a272e6" stroke-width="1.41" stroke-linecap="round" style="animation-delay:2.5s"/>
<line x1="8.8" y1="34.7" x2="10.2" y2="31.3" stroke="#a271e6" stroke-width="1.42" stroke-linecap="round" style="animation-delay:2.75s"/>
<line x1="14.4" y1="24.1" x2="16.7" y2="21.2" stroke="#a171e6" stroke-width="1.44" stroke-linecap="round" style="animation-delay:0.0s"/>
<line x1="22.7" y1="15.5" x2="25.7" y2="13.4" stroke="#a070e6" stroke-width="1.45" stroke-linecap="round" style="animation-delay:0.25s"/>
<line x1="32.9" y1="9.4" x2="36.4" y2="8.2" stroke="#a06fe6" stroke-width="1.46" stroke-linecap="round" style="animation-delay:0.5s"/>
<line x1="44.5" y1="6.3" x2="48.2" y2="6.0" stroke="#9f6ee6" stroke-width="1.47" stroke-linecap="round" style="animation-delay:0.75s"/>
<line x1="56.4" y1="6.5" x2="60.0" y2="7.2" stroke="#9e6de5" stroke-width="1.49" stroke-linecap="round" style="animation-delay:1.0s"/>
<line x1="67.9" y1="9.8" x2="71.2" y2="11.4" stroke="#9e6ce5" stroke-width="1.5" stroke-linecap="round" style="animation-delay:1.25s"/>
<line x1="78.0" y1="16.1" x2="80.8" y2="18.6" stroke="#9d6be5" stroke-width="1.51" stroke-linecap="round" style="animation-delay:1.5s"/>
<line x1="86.1" y1="24.9" x2="88.1" y2="28.0" stroke="#9d6ae5" stroke-width="1.52" stroke-linecap="round" style="animation-delay:1.75s"/>
<line x1="91.6" y1="35.5" x2="92.6" y2="39.1" stroke="#9c69e5" stroke-width="1.53" stroke-linecap="round" style="animation-delay:2.0s"/>
<line x1="93.9" y1="47.2" x2="94.0" y2="50.9" stroke="#9b68e5" stroke-width="1.55" stroke-linecap="round" style="animation-delay:2.25s"/>
<line x1="93.0" y1="59.1" x2="92.1" y2="62.7" stroke="#9b67e4" stroke-width="1.56" stroke-linecap="round" style="animation-delay:2.5s"/>
<line x1="89.0" y1="70.4" x2="87.2" y2="73.6" stroke="#9a66e4" stroke-width="1.57" stroke-linecap="round" style="animation-delay:2.75s"/>
<line x1="82.1" y1="80.1" x2="79.4" y2="82.7" stroke="#9965e4" stroke-width="1.58" stroke-linecap="round" style="animation-delay:0.0s"/>
<line x1="72.8" y1="87.6" x2="69.6" y2="89.4" stroke="#9965e4" stroke-width="1.6" stroke-linecap="round" style="animation-delay:0.25s"/>
<line x1="61.8" y1="92.4" x2="58.2" y2="93.2" stroke="#9864e4" stroke-width="1.61" stroke-linecap="round" style="animation-delay:0.5s"/>
<line x1="50.0" y1="94.0" x2="46.3" y2="93.8" stroke="#9763e4" stroke-width="1.62" stroke-linecap="round" style="animation-delay:0.75s"/>
<line x1="38.2" y1="92.4" x2="34.7" y2="91.2" stroke="#9762e3" stroke-width="1.63" stroke-linecap="round" style="animation-delay:1.0s"/>
<line x1="27.2" y1="87.6" x2="24.1" y2="85.6" stroke="#9661e3" stroke-width="1.64" stroke-linecap="round" style="animation-delay:1.25s"/>
<line x1="17.9" y1="80.1" x2="15.5" y2="77.3" stroke="#9560e3" stroke-width="1.66" stroke-linecap="round" style="animation-delay:1.5s"/>
<line x1="11.0" y1="70.4" x2="9.4" y2="67.1" stroke="#955fe3" stroke-width="1.67" stroke-linecap="round" style="animation-delay:1.75s"/>
<line x1="7.0" y1="59.1" x2="6.3" y2="55.5" stroke="#945ee3" stroke-width="1.68" stroke-linecap="round" style="animation-delay:2.0s"/>
<line x1="6.1" y1="47.2" x2="6.5" y2="43.6" stroke="#935de3" stroke-width="1.69" stroke-linecap="round" style="animation-delay:2.25s"/>
<line x1="8.4" y1="35.5" x2="9.8" y2="32.1" stroke="#935ce2" stroke-width="1.71" stroke-linecap="round" style="animation-delay:2.5s"/>
<line x1="13.9" y1="24.9" x2="16.1" y2="22.0" stroke="#925be2" stroke-width="1.72" stroke-linecap="round" style="animation-delay:2.75s"/>
<line x1="22.0" y1="16.1" x2="24.9" y2="13.9" stroke="#915ae2" stroke-width="1.73" stroke-linecap="round" style="animation-delay:0.0s"/>
<line x1="32.1" y1="9.8" x2="35.5" y2="8.4" stroke="#9159e2" stroke-width="1.74" stroke-linecap="round" style="animation-delay:0.25s"/>
<line x1="43.6" y1="6.5" x2="47.2" y2="6.1" stroke="#9059e2" stroke-width="1.76" stroke-linecap="round" style="animation-delay:0.5s"/>
<line x1="55.5" y1="6.3" x2="59.1" y2="7.0" stroke="#8f58e2" stroke-width="1.77" stroke-linecap="round" style="animation-delay:0.75s"/>
<line x1="67.1" y1="9.4" x2="70.4" y2="11.0" stroke="#8f57e1" stroke-width="1.78" stroke-linecap="round" style="animation-delay:1.0s"/>
<line x1="77.3" y1="15.5" x2="80.1" y2="17.9" stroke="#8e56e1" stroke-width="1.79" stroke-linecap="round" style="animation-delay:1.25s"/>
<line x1="85.6" y1="24.1" x2="87.6" y2="27.2" stroke="#8d55e1" stroke-width="1.8" stroke-linecap="round" style="animation-delay:1.5s"/>
<line x1="91.2" y1="34.7" x2="92.4" y2="38.2" stroke="#8d54e1" stroke-width="1.82" stroke-linecap="round" style="animation-delay:1.75s"/>
<line x1="93.8" y1="46.3" x2="94.0" y2="50.0" stroke="#8c53e1" stroke-width="1.83" stroke-linecap="round" style="animation-delay:2.0s"/>
<line x1="93.2" y1="58.2" x2="92.4" y2="61.8" stroke="#8b52e1" stroke-width="1.84" stroke-linecap="round" style="animation-delay:2.25s"/>
<line x1="89.4" y1="69.6" x2="87.6" y2="72.8" stroke="#8b51e0" stroke-width="1.85" stroke-linecap="round" style="animation-delay:2.5s"/>
<line x1="82.7" y1="79.4" x2="80.1" y2="82.1" stroke="#8a50e0" stroke-width="1.87" stroke-linecap="round" style="animation-delay:2.75s"/>
<line x1="73.6" y1="87.2" x2="70.4" y2="89.0" stroke="#894fe0" stroke-width="1.88" stroke-linecap="round" style="animation-delay:0.0s"/>
<line x1="62.7" y1="92.1" x2="59.1" y2="93.0" stroke="#894ee0" stroke-width="1.89" stroke-linecap="round" style="animation-delay:0.25s"/>
<line x1="50.9" y1="94.0" x2="47.2" y2="93.9" stroke="#884de0" stroke-width="1.9" stroke-linecap="round" style="animation-delay:0.5s"/>
<line x1="39.1" y1="92.6" x2="35.5" y2="91.6" stroke="#874de0" stroke-width="1.91" stroke-linecap="round" style="animation-delay:0.75s"/>
<line x1="28.0" y1="88.1" x2="24.9" y2="86.1" stroke="#874cdf" stroke-width="1.93" stroke-linecap="round" style="animation-delay:1.0s"/>
<line x1="18.6" y1="80.8" x2="16.1" y2="78.0" stroke="#864bdf" stroke-width="1.94" stroke-linecap="round" style="animation-delay:1.25s"/>
<line x1="11.4" y1="71.2" x2="9.8" y2="67.9" stroke="#854adf" stroke-width="1.95" stroke-linecap="round" style="animation-delay:1.5s"/>
<line x1="7.2" y1="60.0" x2="6.5" y2="56.4" stroke="#8549df" stroke-width="1.96" stroke-linecap="round" style="animation-delay:1.75s"/>
<line x1="6.0" y1="48.2" x2="6.3" y2="44.5" stroke="#8448df" stroke-width="1.98" stroke-linecap="round" style="animation-delay:2.0s"/>
<line x1="8.2" y1="36.4" x2="9.4" y2="32.9" stroke="#8347df" stroke-width="1.99" stroke-linecap="round" style="animation-delay:2.25s"/>
<line x1="13.4" y1="25.7" x2="15.5" y2="22.7" stroke="#8346de" stroke-width="2.0" stroke-linecap="round" style="animation-delay:2.5s"/>
<line x1="21.2" y1="16.7" x2="24.1" y2="14.4" stroke="#8245de" stroke-width="2.01" stroke-linecap="round" style="animation-delay:2.75s"/>
<line x1="31.3" y1="10.2" x2="34.7" y2="8.8" stroke="#8144de" stroke-width="2.03" stroke-linecap="round" style="animation-delay:0.0s"/>
<line x1="42.7" y1="6.6" x2="46.3" y2="6.2" stroke="#8143de" stroke-width="2.04" stroke-linecap="round" style="animation-delay:0.25s"/>
<line x1="54.6" y1="6.2" x2="58.2" y2="6.8" stroke="#8042de" stroke-width="2.05" stroke-linecap="round" style="animation-delay:0.5s"/>
<line x1="66.2" y1="9.1" x2="69.6" y2="10.6" stroke="#7f41de" stroke-width="2.06" stroke-linecap="round" style="animation-delay:0.75s"/>
<line x1="76.6" y1="15.0" x2="79.4" y2="17.3" stroke="#7f41dd" stroke-width="2.07" stroke-linecap="round" style="animation-delay:1.0s"/>
<line x1="85.0" y1="23.4" x2="87.2" y2="26.4" stroke="#7e40dd" stroke-width="2.09" stroke-linecap="round" style="animation-delay:1.25s"/>
<line x1="90.9" y1="33.8" x2="92.1" y2="37.3" stroke="#7d3fdd" stroke-width="2.1" stroke-linecap="round" style="animation-delay:1.5s"/>
<line x1="93.8" y1="45.4" x2="94.0" y2="49.1" stroke="#7d3edd" stroke-width="2.11" stroke-linecap="round" style="animation-delay:1.75s"/>
<line x1="93.4" y1="57.3" x2="92.6" y2="60.9" stroke="#7c3ddd" stroke-width="2.12" stroke-linecap="round" style="animation-delay:2.0s"/>
<line x1="89.8" y1="68.7" x2="88.1" y2="72.0" stroke="#7b3cdd" stroke-width="2.14" stroke-linecap="round" style="animation-delay:2.25s"/>
<line x1="83.3" y1="78.8" x2="80.8" y2="81.4" stroke="#7b3bdc" stroke-width="2.15" stroke-linecap="round" style="animation-delay:2.5s"/>
<line x1="74.3" y1="86.6" x2="71.2" y2="88.6" stroke="#7a3adc" stroke-width="2.16" stroke-linecap="round" style="animation-delay:2.75s"/>
<line x1="63.6" y1="91.8" x2="60.0" y2="92.8" stroke="#7939dc" stroke-width="2.17" stroke-linecap="round" style="animation-delay:0.0s"/>
<line x1="51.8" y1="94.0" x2="48.2" y2="94.0" stroke="#7938dc" stroke-width="2.18" stroke-linecap="round" style="animation-delay:0.25s"/>
<line x1="40.0" y1="92.8" x2="36.4" y2="91.8" stroke="#7837dc" stroke-width="2.2" stroke-linecap="round" style="animation-delay:0.5s"/>
<line x1="28.8" y1="88.6" x2="25.7" y2="86.6" stroke="#7736dc" stroke-width="2.21" stroke-linecap="round" style="animation-delay:0.75s"/>
<line x1="19.2" y1="81.4" x2="16.7" y2="78.8" stroke="#7735db" stroke-width="2.22" stroke-linecap="round" style="animation-delay:1.0s"/>
<line x1="11.9" y1="72.0" x2="10.2" y2="68.7" stroke="#7635db" stroke-width="2.23" stroke-linecap="round" style="animation-delay:1.25s"/>
<line x1="7.4" y1="60.9" x2="6.6" y2="57.3" stroke="#7534db" stroke-width="2.25" stroke-linecap="round" style="animation-delay:1.5s"/>
<line x1="6.0" y1="49.1" x2="6.2" y2="45.4" stroke="#7533db" stroke-width="2.26" stroke-linecap="round" style="animation-delay:1.75s"/>
<line x1="7.9" y1="37.3" x2="9.1" y2="33.8" stroke="#7432db" stroke-width="2.27" stroke-linecap="round" style="animation-delay:2.0s"/>
<line x1="12.8" y1="26.4" x2="15.0" y2="23.4" stroke="#7331db" stroke-width="2.28" stroke-linecap="round" style="animation-delay:2.25s"/>
<line x1="20.6" y1="17.3" x2="23.4" y2="15.0" stroke="#7330da" stroke-width="2.3" stroke-linecap="round" style="animation-delay:2.5s"/>
<line x1="30.4" y1="10.6" x2="33.8" y2="9.1" stroke="#722fda" stroke-width="2.31" stroke-linecap="round" style="animation-delay:2.75s"/>
<line x1="41.8" y1="6.8" x2="45.4" y2="6.2" stroke="#712eda" stroke-width="2.32" stroke-linecap="round" style="animation-delay:0.0s"/>
<line x1="53.7" y1="6.2" x2="57.3" y2="6.6" stroke="#712dda" stroke-width="2.33" stroke-linecap="round" style="animation-delay:0.25s"/>
<line x1="65.3" y1="8.8" x2="68.7" y2="10.2" stroke="#702cda" stroke-width="2.34" stroke-linecap="round" style="animation-delay:0.5s"/>
<line x1="75.9" y1="14.4" x2="78.8" y2="16.7" stroke="#6f2bda" stroke-width="2.36" stroke-linecap="round" style="animation-delay:0.75s"/>
<line x1="84.5" y1="22.7" x2="86.6" y2="25.7" stroke="#6f2ad9" stroke-width="2.37" stroke-linecap="round" style="animation-delay:1.0s"/>
<line x1="90.6" y1="32.9" x2="91.8" y2="36.4" stroke="#6e29d9" stroke-width="2.38" stroke-linecap="round" style="animation-delay:1.25s"/>
<line x1="93.7" y1="44.5" x2="94.0" y2="48.2" stroke="#6d28d9" stroke-width="2.39" stroke-linecap="round" style="animation-delay:1.5s"/>
</svg>
